<svg xmlns="http://www.w3.org/2000/svg" viewBox="0 0 150 43"><defs><style>.cls-1{fill:#fff;}</style></defs><title>btn-contact</title><g id="Calque_2" data-name="Calque 2"><g id="Btn-exp"><path class="cls-1" d="M128.5,1a20.5,20.5,0,0,1,0,41H21.5a20.5,20.5,0,0,1,0-41h107m0-1H21.5A21.5,21.5,0,0,0,0,21.5H0A21.5,21.5,0,0,0,21.5,43h107A21.5,21.5,0,0,0,150,21.5h0A21.5,21.5,0,0,0,128.5,0Z"/><path class="cls-1" d="M27.58,16.37a.68.68,0,0,1-.2-.57v-.28a.66.66,0,0,1,.22-.57A1.64,1.64,0,0,1,29,15a.69.69,0,0,1,.2.57v.28a.67.67,0,0,1-.21.58,1.28,1.28,0,0,1-.72.15A1.15,1.15,0,0,1,27.58,16.37ZM28.92,25a.9.9,0,0,1-1.26,0,.87.87,0,0,1-.25-.63v-6a.87.87,0,0,1,.25-.63.9.9,0,0,1,1.26,0,.88.88,0,0,1,.25.63v6A.88.88,0,0,1,28.92,25Z"/><path class="cls-1" d="M36.36,17.72a1.16,1.16,0,0,1,.76,1,.88.88,0,0,1-.19.56.6.6,0,0,1-.5.24.93.93,0,0,1-.38-.07,1.37,1.37,0,0,1-.28-.18,2.05,2.05,0,0,0-.27-.18,1.82,1.82,0,0,0-.43-.13,2.39,2.39,0,0,0-.46-.06,2.21,2.21,0,0,0-1.71.68,2.52,2.52,0,0,0-.62,1.77,2.5,2.5,0,0,0,.63,1.74,2.07,2.07,0,0,0,1.6.69,2.48,2.48,0,0,0,1.07-.18l.24-.15a1.67,1.67,0,0,1,.28-.17.8.8,0,0,1,.32-.06.74.74,0,0,1,.58.23.86.86,0,0,1,.21.6.85.85,0,0,1-.41.66,3.19,3.19,0,0,1-1.08.49,5.45,5.45,0,0,1-1.43.18,3.69,3.69,0,0,1-2-.53A3.53,3.53,0,0,1,31,23.46a4.52,4.52,0,0,1-.47-2.06,4.41,4.41,0,0,1,.49-2.1,3.59,3.59,0,0,1,1.36-1.44,3.82,3.82,0,0,1,2-.52A4.42,4.42,0,0,1,36.36,17.72Z"/><path class="cls-1" d="M45.45,23.48A3.71,3.71,0,0,1,44,24.92a4.21,4.21,0,0,1-4,0,3.72,3.72,0,0,1-1.43-1.44,4.43,4.43,0,0,1,0-4.19A3.77,3.77,0,0,1,40,17.85a4.16,4.16,0,0,1,4,0,3.76,3.76,0,0,1,1.44,1.44,4.43,4.43,0,0,1,0,4.19Zm-1.52-3.37a2.2,2.2,0,0,0-.8-.87,2.18,2.18,0,0,0-2.23,0,2.2,2.2,0,0,0-.8.87,2.67,2.67,0,0,0-.3,1.28,2.63,2.63,0,0,0,.3,1.27,2.21,2.21,0,0,0,.8.86,2.19,2.19,0,0,0,2.23,0,2.21,2.21,0,0,0,.8-.86,2.64,2.64,0,0,0,.3-1.27A2.68,2.68,0,0,0,43.93,20.11Z"/><path class="cls-1" d="M56.12,22.43a1.52,1.52,0,0,0,0,.23.73.73,0,0,0,.17.53.57.57,0,0,0,.43.18,1.38,1.38,0,0,0,1.05-.56,4.23,4.23,0,0,0,.77-1.46,5.88,5.88,0,0,0,.29-1.83,3.36,3.36,0,0,0-.48-1.8A3.21,3.21,0,0,0,57,16.5a4.71,4.71,0,0,0-2.07-.43,7.59,7.59,0,0,0-3.39.74A5.73,5.73,0,0,0,49.12,19a6.16,6.16,0,0,0-.88,3.32,4.81,4.81,0,0,0,.45,2.07,3.64,3.64,0,0,0,1.42,1.56,4.52,4.52,0,0,0,2.42.6,6.42,6.42,0,0,0,1.81-.21,7.32,7.32,0,0,0,1.47-.65.6.6,0,0,1,.28-.09q.29,0,.44.36a.39.39,0,0,1,0,.18q0,.32-.55.61a11.11,11.11,0,0,1-1.65.69,6.14,6.14,0,0,1-1.84.24,5.79,5.79,0,0,1-3.09-.76,4.58,4.58,0,0,1-1.79-2,6.14,6.14,0,0,1-.57-2.63,7.22,7.22,0,0,1,1-3.89,6.9,6.9,0,0,1,2.82-2.57,8.7,8.7,0,0,1,4-.9,5.8,5.8,0,0,1,2.76.61,4.23,4.23,0,0,1,1.74,1.65A4.6,4.6,0,0,1,60,19.51a6.07,6.07,0,0,1-.48,2.37,4.77,4.77,0,0,1-1.37,1.87,3.15,3.15,0,0,1-2.06.73A1.81,1.81,0,0,1,55,24.15a1.4,1.4,0,0,1-.59-.86,2.31,2.31,0,0,1-2.16,1.2,2.08,2.08,0,0,1-1.06-.29,2.16,2.16,0,0,1-.81-.85,2.58,2.58,0,0,1-.31-1.27,4.43,4.43,0,0,1,.47-1.91,4.78,4.78,0,0,1,1.28-1.66,2.68,2.68,0,0,1,1.73-.66,1.57,1.57,0,0,1,.9.27,1.67,1.67,0,0,1,.61.75l.06-.39a.71.71,0,0,1,.24-.41.82.82,0,0,1,.56-.18q.79,0,.79.63a1.5,1.5,0,0,1,0,.23Zm-1.33-2.15a1.05,1.05,0,0,0-.32-.86,1.27,1.27,0,0,0-.83-.26,1.37,1.37,0,0,0-1,.45A3,3,0,0,0,52,20.74,3.89,3.89,0,0,0,51.71,22a1.2,1.2,0,0,0,.26.84.94.94,0,0,0,.73.28,1.4,1.4,0,0,0,.85-.28,2.52,2.52,0,0,0,.64-.69,3,3,0,0,0,.36-.75A3.86,3.86,0,0,0,54.79,20.28Z"/><path class="cls-1" d="M68.23,21.77a.93.93,0,0,1-.61.22H62.8a2.2,2.2,0,0,0,.8,1.35,2.24,2.24,0,0,0,1.42.49,3.14,3.14,0,0,0,.93-.11,2.44,2.44,0,0,0,.53-.23l.27-.17a1.12,1.12,0,0,1,.5-.13.72.72,0,0,1,.53.22.7.7,0,0,1,.22.51.91.91,0,0,1-.41.71,3.49,3.49,0,0,1-1.09.57A4.52,4.52,0,0,1,63,24.92a3.56,3.56,0,0,1-1.41-1.41,4.11,4.11,0,0,1-.5-2,4.47,4.47,0,0,1,.53-2.2A3.73,3.73,0,0,1,63,17.84a3.58,3.58,0,0,1,1.84-.5,3.41,3.41,0,0,1,1.82.53A3.93,3.93,0,0,1,68,19.28a3.81,3.81,0,0,1,.51,1.93A.75.75,0,0,1,68.23,21.77Zm-5.41-1.24h3.82v-.1a1.51,1.51,0,0,0-.6-1.05,1.89,1.89,0,0,0-1.23-.44A1.81,1.81,0,0,0,62.82,20.53Z"/><path class="cls-1" d="M76.2,18.22a4.49,4.49,0,0,1,.57,2.44V24.4a.88.88,0,0,1-.25.63.9.9,0,0,1-1.25,0A.87.87,0,0,1,75,24.4V20.66a2.1,2.1,0,0,0-.34-1.26,1.33,1.33,0,0,0-1.15-.46,1.78,1.78,0,0,0-1.33.49,1.68,1.68,0,0,0-.48,1.23V24.4a.88.88,0,0,1-.25.63.9.9,0,0,1-1.26,0A.87.87,0,0,1,70,24.4v-6a.87.87,0,0,1,.25-.63.9.9,0,0,1,1.26,0,.88.88,0,0,1,.25.63v.25a3.52,3.52,0,0,1,1-.9,2.67,2.67,0,0,1,1.39-.38A2.26,2.26,0,0,1,76.2,18.22Z"/><path class="cls-1" d="M84.22,23.91a.82.82,0,0,1,0,1.15.79.79,0,0,1-.58.23h-4.7a.8.8,0,0,1-.79-.76,1.27,1.27,0,0,1,.06-.42,1.53,1.53,0,0,1,.22-.39l3.47-4.49H79.07a.8.8,0,0,1-.82-.82.75.75,0,0,1,.23-.56.8.8,0,0,1,.58-.23h4.49a.75.75,0,0,1,.55.23.76.76,0,0,1,.23.56,1.37,1.37,0,0,1,0,.37,1.11,1.11,0,0,1-.2.36l-3.5,4.54h3A.81.81,0,0,1,84.22,23.91Z"/><path class="cls-1" d="M92.14,17.74a.88.88,0,0,1,.25.63v6.2a3.44,3.44,0,0,1-1,2.76,4.07,4.07,0,0,1-2.73.87,6.62,6.62,0,0,1-1-.08,3.82,3.82,0,0,1-.84-.21q-.71-.31-.71-.85a.75.75,0,0,1,0-.23.9.9,0,0,1,.3-.49.72.72,0,0,1,.46-.17.87.87,0,0,1,.28,0l.36.15a3.67,3.67,0,0,0,.54.17,2.62,2.62,0,0,0,.59.07,2.21,2.21,0,0,0,1.52-.45,2,2,0,0,0,.49-1.52v-.15a2.84,2.84,0,0,1-2.36.95,2.52,2.52,0,0,1-1.34-.36,2.41,2.41,0,0,1-.9-1,3.17,3.17,0,0,1-.32-1.45V18.37a.87.87,0,0,1,.25-.63.9.9,0,0,1,1.26,0,.88.88,0,0,1,.25.63v3.73a1.82,1.82,0,0,0,.4,1.32,1.59,1.59,0,0,0,1.17.4,1.53,1.53,0,0,0,1.17-.44,1.8,1.8,0,0,0,.42-1.28V18.37a.88.88,0,0,1,.25-.63.9.9,0,0,1,1.26,0Z"/><path class="cls-1" d="M105.29,18.22a4.58,4.58,0,0,1,.55,2.44V24.4a.88.88,0,0,1-.25.63.9.9,0,0,1-1.26,0,.88.88,0,0,1-.25-.63V20.66a2.21,2.21,0,0,0-.31-1.26,1.24,1.24,0,0,0-1.1-.46,1.67,1.67,0,0,0-1.28.49,1.73,1.73,0,0,0-.46,1.23V24.4a.87.87,0,0,1-.25.63.9.9,0,0,1-1.25,0,.87.87,0,0,1-.25-.63V20.66a2.21,2.21,0,0,0-.31-1.26,1.24,1.24,0,0,0-1.1-.46,1.67,1.67,0,0,0-1.28.49A1.73,1.73,0,0,0,96,20.66V24.4a.88.88,0,0,1-.25.63.9.9,0,0,1-1.26,0,.87.87,0,0,1-.25-.63v-6a.87.87,0,0,1,.25-.63.9.9,0,0,1,1.26,0,.88.88,0,0,1,.25.63v.23a3.56,3.56,0,0,1,1-.9,2.53,2.53,0,0,1,1.35-.37,2.21,2.21,0,0,1,2.35,1.6,3.44,3.44,0,0,1,1-1.11,2.54,2.54,0,0,1,1.54-.5A2.17,2.17,0,0,1,105.29,18.22Z"/><path class="cls-1" d="M107.86,25a.88.88,0,0,1-.23-.65v-.25a.79.79,0,0,1,.88-.88h.19a.79.79,0,0,1,.88.88v.25a.79.79,0,0,1-.88.88h-.19A.88.88,0,0,1,107.86,25Z"/><path class="cls-1" d="M111.43,16.37a.68.68,0,0,1-.2-.57v-.28a.66.66,0,0,1,.22-.57,1.64,1.64,0,0,1,1.42,0,.69.69,0,0,1,.2.57v.28a.67.67,0,0,1-.21.58,1.28,1.28,0,0,1-.72.15A1.15,1.15,0,0,1,111.43,16.37ZM112.77,25a.9.9,0,0,1-1.26,0,.87.87,0,0,1-.25-.63v-6a.87.87,0,0,1,.25-.63.9.9,0,0,1,1.26,0,.88.88,0,0,1,.25.63v6A.88.88,0,0,1,112.77,25Z"/><path class="cls-1" d="M121.79,23.48a3.71,3.71,0,0,1-1.44,1.44,4.21,4.21,0,0,1-4,0,3.72,3.72,0,0,1-1.43-1.44,4.43,4.43,0,0,1,0-4.19,3.77,3.77,0,0,1,1.43-1.44,4.16,4.16,0,0,1,4,0,3.76,3.76,0,0,1,1.44,1.44,4.43,4.43,0,0,1,0,4.19Zm-1.52-3.37a2.2,2.2,0,0,0-.8-.87,2.18,2.18,0,0,0-2.23,0,2.2,2.2,0,0,0-.8.87,2.67,2.67,0,0,0-.3,1.28,2.63,2.63,0,0,0,.3,1.27,2.21,2.21,0,0,0,.8.86,2.19,2.19,0,0,0,2.23,0,2.21,2.21,0,0,0,.8-.86,2.64,2.64,0,0,0,.3-1.27A2.68,2.68,0,0,0,120.27,20.11Z"/></g></g></svg>