<svg xmlns="http://www.w3.org/2000/svg" viewBox="0 0 150 43"><defs><style>.cls-1{fill:#fff;}.cls-2{fill:#e63b99;}</style></defs><title>btn-contact</title><g id="Calque_2" data-name="Calque 2"><g id="Btn-exp"><rect class="cls-1" width="150" height="43" rx="21.5" ry="21.5"/><path class="cls-2" d="M14.78,17.23a.81.81,0,0,1-.18.49.59.59,0,0,1-.49.25.86.86,0,0,1-.41-.11,3,3,0,0,0-1.27-.28,2.92,2.92,0,0,0-1.46.35,2.4,2.4,0,0,0-1,1,3.12,3.12,0,0,0-.34,1.47,2.84,2.84,0,0,0,.76,2.15,2.77,2.77,0,0,0,2,.73A2.76,2.76,0,0,0,13.7,23a1,1,0,0,1,.38-.1.66.66,0,0,1,.53.26.78.78,0,0,1,.18.49.65.65,0,0,1-.1.35.62.62,0,0,1-.28.24,4.4,4.4,0,0,1-2,.47,4.71,4.71,0,0,1-2.16-.5A3.83,3.83,0,0,1,8.7,22.77a4.46,4.46,0,0,1-.59-2.35,4.33,4.33,0,0,1,.56-2.2,4,4,0,0,1,1.54-1.52,4.5,4.5,0,0,1,2.22-.55,4.27,4.27,0,0,1,2,.47A.64.64,0,0,1,14.78,17.23Z"/><path class="cls-2" d="M21.67,23.13a3.05,3.05,0,0,1-1.18,1.18,3.46,3.46,0,0,1-3.31,0A3.06,3.06,0,0,1,16,23.13a3.65,3.65,0,0,1,0-3.44,3.1,3.1,0,0,1,1.18-1.19,3.42,3.42,0,0,1,3.31,0,3.09,3.09,0,0,1,1.18,1.19,3.65,3.65,0,0,1,0,3.44Zm-1.25-2.77a1.81,1.81,0,0,0-.66-.71,1.8,1.8,0,0,0-1.84,0,1.81,1.81,0,0,0-.66.71,2.2,2.2,0,0,0-.25,1,2.16,2.16,0,0,0,.25,1,1.82,1.82,0,0,0,.66.71,1.8,1.8,0,0,0,1.84,0,1.82,1.82,0,0,0,.66-.71,2.17,2.17,0,0,0,.25-1A2.2,2.2,0,0,0,20.42,20.36Z"/><path class="cls-2" d="M28.43,18.8a3.69,3.69,0,0,1,.47,2v3.07a.72.72,0,0,1-.2.52.74.74,0,0,1-1,0,.72.72,0,0,1-.2-.52V20.81a1.73,1.73,0,0,0-.28-1,1.1,1.1,0,0,0-.95-.38,1.46,1.46,0,0,0-1.09.4,1.38,1.38,0,0,0-.4,1v3.07a.72.72,0,0,1-.2.52.74.74,0,0,1-1,0,.72.72,0,0,1-.2-.52v-5a.72.72,0,0,1,.2-.52.74.74,0,0,1,1,0,.72.72,0,0,1,.2.52v.2a2.89,2.89,0,0,1,.85-.74,2.19,2.19,0,0,1,1.15-.31A1.86,1.86,0,0,1,28.43,18.8Z"/><path class="cls-2" d="M33.86,23.42a.64.64,0,0,1-.22,1,1.47,1.47,0,0,1-.8.22,2.33,2.33,0,0,1-1.25-.32,1.48,1.48,0,0,1-.51-1.35V19.63h-.55a.66.66,0,0,1-.67-.67A.62.62,0,0,1,30,18.5a.66.66,0,0,1,.48-.19h.55v-.77a.72.72,0,0,1,.73-.73.67.67,0,0,1,.5.21.72.72,0,0,1,.2.52v.77h.85A.66.66,0,0,1,34,19a.62.62,0,0,1-.19.46.66.66,0,0,1-.48.19h-.85v3.25a.46.46,0,0,0,.13.37.53.53,0,0,0,.36.11,1,1,0,0,0,.26,0,.72.72,0,0,1,.28-.06A.4.4,0,0,1,33.86,23.42Z"/><path class="cls-2" d="M41.08,18.28a.72.72,0,0,1,.2.53v5.08a.72.72,0,0,1-.2.52.69.69,0,0,1-.52.21.68.68,0,0,1-.51-.2.75.75,0,0,1-.21-.52,2.6,2.6,0,0,1-1.88.84,2.74,2.74,0,0,1-1.5-.43,3,3,0,0,1-1.06-1.18A3.69,3.69,0,0,1,35,21.41a3.77,3.77,0,0,1,.38-1.72,3,3,0,0,1,1-1.19,2.67,2.67,0,0,1,1.47-.43,2.78,2.78,0,0,1,1.08.21,2.83,2.83,0,0,1,.85.53h0a.72.72,0,0,1,.2-.52.69.69,0,0,1,.52-.21A.7.7,0,0,1,41.08,18.28Zm-1.67,4.57a2.12,2.12,0,0,0,.49-1.43A2.14,2.14,0,0,0,39.41,20a1.68,1.68,0,0,0-2.53,0,2.35,2.35,0,0,0,0,2.87,1.58,1.58,0,0,0,1.27.57A1.6,1.6,0,0,0,39.41,22.84Z"/><path class="cls-2" d="M47.28,18.39a1,1,0,0,1,.62.85.72.72,0,0,1-.16.46.5.5,0,0,1-.41.2.76.76,0,0,1-.31-.05,1.13,1.13,0,0,1-.23-.14l-.22-.15a1.5,1.5,0,0,0-.35-.11,2,2,0,0,0-.38,0,1.81,1.81,0,0,0-1.41.56,2.08,2.08,0,0,0-.51,1.46,2.05,2.05,0,0,0,.52,1.43,1.7,1.7,0,0,0,1.32.57,2,2,0,0,0,.88-.14l.2-.13a1.38,1.38,0,0,1,.23-.14.65.65,0,0,1,.26,0,.61.61,0,0,1,.47.19.71.71,0,0,1,.17.49.7.7,0,0,1-.34.54,2.62,2.62,0,0,1-.89.4,4.49,4.49,0,0,1-1.18.15A3,3,0,0,1,44,24.3a2.9,2.9,0,0,1-1.09-1.19,3.72,3.72,0,0,1-.38-1.7,3.62,3.62,0,0,1,.4-1.73A3,3,0,0,1,44,18.5a3.14,3.14,0,0,1,1.63-.43A3.64,3.64,0,0,1,47.28,18.39Z"/><path class="cls-2" d="M52.42,23.42a.64.64,0,0,1-.22,1,1.47,1.47,0,0,1-.8.22,2.33,2.33,0,0,1-1.25-.32,1.48,1.48,0,0,1-.51-1.35V19.63h-.55a.66.66,0,0,1-.67-.67.62.62,0,0,1,.19-.46.66.66,0,0,1,.48-.19h.55v-.77a.72.72,0,0,1,.73-.73.67.67,0,0,1,.5.21.72.72,0,0,1,.2.52v.77h.85a.66.66,0,0,1,.67.67.62.62,0,0,1-.19.46.66.66,0,0,1-.48.19h-.85v3.25a.46.46,0,0,0,.13.37.53.53,0,0,0,.36.11,1,1,0,0,0,.26,0,.72.72,0,0,1,.28-.06A.4.4,0,0,1,52.42,23.42Z"/><path class="cls-2" d="M57.53,19.74a.72.72,0,0,1-.19-.53V19a.65.65,0,0,1,.72-.72h.16a.65.65,0,0,1,.72.72v.2a.65.65,0,0,1-.72.72h-.16A.72.72,0,0,1,57.53,19.74Zm0,4.69a.72.72,0,0,1-.19-.53v-.2a.65.65,0,0,1,.72-.72h.16a.65.65,0,0,1,.72.72v.2a.65.65,0,0,1-.72.72h-.16A.72.72,0,0,1,57.53,24.43Z"/><path class="cls-2" d="M64,17.28a.56.56,0,0,1-.17-.47v-.23a.55.55,0,0,1,.18-.47,1.35,1.35,0,0,1,1.16,0,.57.57,0,0,1,.17.47v.23a.55.55,0,0,1-.17.47,1,1,0,0,1-.59.13A1,1,0,0,1,64,17.28Zm1.1,7.12a.74.74,0,0,1-1,0,.72.72,0,0,1-.2-.52v-5a.72.72,0,0,1,.2-.52.74.74,0,0,1,1,0,.72.72,0,0,1,.2.52v5A.72.72,0,0,1,65.08,24.4Z"/><path class="cls-2" d="M71.2,18.39a1,1,0,0,1,.62.85.72.72,0,0,1-.16.46.5.5,0,0,1-.41.2.76.76,0,0,1-.31-.05,1.13,1.13,0,0,1-.23-.14l-.22-.15a1.5,1.5,0,0,0-.35-.11,2,2,0,0,0-.38,0,1.81,1.81,0,0,0-1.41.56,2.08,2.08,0,0,0-.51,1.46,2.05,2.05,0,0,0,.52,1.43,1.7,1.7,0,0,0,1.32.57,2,2,0,0,0,.88-.14l.2-.13A1.38,1.38,0,0,1,71,23a.65.65,0,0,1,.26,0,.61.61,0,0,1,.47.19.71.71,0,0,1,.17.49.7.7,0,0,1-.34.54,2.62,2.62,0,0,1-.89.4,4.49,4.49,0,0,1-1.18.15,3,3,0,0,1-1.63-.43,2.9,2.9,0,0,1-1.09-1.19,3.72,3.72,0,0,1-.38-1.7,3.62,3.62,0,0,1,.4-1.73,3,3,0,0,1,1.12-1.18,3.14,3.14,0,0,1,1.63-.43A3.64,3.64,0,0,1,71.2,18.39Z"/><path class="cls-2" d="M78.67,23.13a3.05,3.05,0,0,1-1.18,1.18,3.46,3.46,0,0,1-3.31,0A3.06,3.06,0,0,1,73,23.13a3.65,3.65,0,0,1,0-3.44,3.1,3.1,0,0,1,1.18-1.19,3.42,3.42,0,0,1,3.31,0,3.09,3.09,0,0,1,1.18,1.19,3.65,3.65,0,0,1,0,3.44Zm-1.25-2.77a1.81,1.81,0,0,0-.66-.71,1.8,1.8,0,0,0-1.84,0,1.81,1.81,0,0,0-.66.71,2.2,2.2,0,0,0-.25,1,2.16,2.16,0,0,0,.25,1,1.82,1.82,0,0,0,.66.71,1.8,1.8,0,0,0,1.84,0,1.82,1.82,0,0,0,.66-.71,2.17,2.17,0,0,0,.25-1A2.2,2.2,0,0,0,77.42,20.36Z"/><path class="cls-2" d="M87.44,22.26a1.25,1.25,0,0,0,0,.19.6.6,0,0,0,.14.43.47.47,0,0,0,.35.14,1.14,1.14,0,0,0,.86-.46,3.48,3.48,0,0,0,.64-1.2,4.83,4.83,0,0,0,.24-1.51,2.77,2.77,0,0,0-.4-1.48,2.64,2.64,0,0,0-1.13-1,3.88,3.88,0,0,0-1.7-.35,6.24,6.24,0,0,0-2.78.61,4.71,4.71,0,0,0-2,1.77A5.07,5.07,0,0,0,81,22.14a4,4,0,0,0,.37,1.7,3,3,0,0,0,1.16,1.28,3.72,3.72,0,0,0,2,.49A5.28,5.28,0,0,0,86,25.45a6,6,0,0,0,1.21-.53.5.5,0,0,1,.23-.07q.24,0,.36.3a.32.32,0,0,1,0,.14q0,.26-.46.5a9.13,9.13,0,0,1-1.36.57,5,5,0,0,1-1.51.2,4.76,4.76,0,0,1-2.54-.62,3.76,3.76,0,0,1-1.48-1.63A5.05,5.05,0,0,1,80,22.14a5.94,5.94,0,0,1,.85-3.2,5.68,5.68,0,0,1,2.32-2.11,7.15,7.15,0,0,1,3.26-.74,4.77,4.77,0,0,1,2.27.5A3.48,3.48,0,0,1,90.14,18a3.78,3.78,0,0,1,.49,1.91,5,5,0,0,1-.4,2,3.92,3.92,0,0,1-1.13,1.54,2.59,2.59,0,0,1-1.69.6,1.49,1.49,0,0,1-.88-.28A1.15,1.15,0,0,1,86,23a1.9,1.9,0,0,1-1.78,1,1.71,1.71,0,0,1-.87-.24,1.78,1.78,0,0,1-.67-.7,2.12,2.12,0,0,1-.25-1,3.64,3.64,0,0,1,.39-1.57A3.93,3.93,0,0,1,83.92,19a2.21,2.21,0,0,1,1.42-.55,1.29,1.29,0,0,1,.74.22,1.37,1.37,0,0,1,.5.62l0-.32a.59.59,0,0,1,.2-.34.67.67,0,0,1,.46-.14q.65,0,.65.52a1.23,1.23,0,0,1,0,.19ZM86.35,20.5a.87.87,0,0,0-.26-.71,1,1,0,0,0-.68-.22,1.13,1.13,0,0,0-.82.37,2.49,2.49,0,0,0-.56.93,3.2,3.2,0,0,0-.2,1.07,1,1,0,0,0,.22.69.77.77,0,0,0,.6.23,1.16,1.16,0,0,0,.7-.23,2.07,2.07,0,0,0,.53-.56,2.45,2.45,0,0,0,.29-.62A3.18,3.18,0,0,0,86.35,20.5Z"/><path class="cls-2" d="M97.4,21.72a.76.76,0,0,1-.5.18h-4A1.81,1.81,0,0,0,93.6,23a1.85,1.85,0,0,0,1.16.4,2.58,2.58,0,0,0,.77-.09,2,2,0,0,0,.44-.19l.22-.14a.92.92,0,0,1,.41-.11.59.59,0,0,1,.43.18.57.57,0,0,1,.18.42.75.75,0,0,1-.34.59,2.87,2.87,0,0,1-.9.47,3.72,3.72,0,0,1-2.9-.23,2.93,2.93,0,0,1-1.16-1.16,3.38,3.38,0,0,1-.41-1.66,3.68,3.68,0,0,1,.43-1.81,3.07,3.07,0,0,1,1.14-1.19,3,3,0,0,1,1.51-.41,2.8,2.8,0,0,1,1.49.43,3.24,3.24,0,0,1,1.12,1.16,3.13,3.13,0,0,1,.42,1.58A.62.62,0,0,1,97.4,21.72ZM93,20.7H96.1v-.08a1.24,1.24,0,0,0-.49-.86,1.56,1.56,0,0,0-1-.36A1.49,1.49,0,0,0,93,20.7Z"/><path class="cls-2" d="M104,18.8a3.69,3.69,0,0,1,.47,2v3.07a.72.72,0,0,1-.2.52.74.74,0,0,1-1,0,.72.72,0,0,1-.2-.52V20.81a1.73,1.73,0,0,0-.28-1,1.1,1.1,0,0,0-.95-.38,1.46,1.46,0,0,0-1.09.4,1.38,1.38,0,0,0-.4,1v3.07a.72.72,0,0,1-.2.52.74.74,0,0,1-1,0,.72.72,0,0,1-.2-.52v-5a.72.72,0,0,1,.2-.52.74.74,0,0,1,1,0,.72.72,0,0,1,.2.52v.2a2.89,2.89,0,0,1,.85-.74,2.19,2.19,0,0,1,1.15-.31A1.86,1.86,0,0,1,104,18.8Z"/><path class="cls-2" d="M110.56,23.48a.67.67,0,0,1,0,.94.65.65,0,0,1-.48.19h-3.86a.66.66,0,0,1-.65-.62,1,1,0,0,1,0-.34,1.26,1.26,0,0,1,.18-.32l2.86-3.7h-2.33a.66.66,0,0,1-.67-.67.62.62,0,0,1,.19-.46.66.66,0,0,1,.48-.19H110a.61.61,0,0,1,.45.19.63.63,0,0,1,.19.46,1.13,1.13,0,0,1,0,.31.92.92,0,0,1-.17.29l-2.88,3.73h2.51A.66.66,0,0,1,110.56,23.48Z"/><path class="cls-2" d="M117.07,18.4a.72.72,0,0,1,.2.52V24a2.83,2.83,0,0,1-.84,2.27,3.35,3.35,0,0,1-2.24.71,5.44,5.44,0,0,1-.83-.07,3.14,3.14,0,0,1-.69-.17q-.59-.25-.59-.7a.62.62,0,0,1,0-.19.74.74,0,0,1,.25-.4.59.59,0,0,1,.38-.14.72.72,0,0,1,.23,0l.29.12a3,3,0,0,0,.44.14,2.15,2.15,0,0,0,.49.05,1.82,1.82,0,0,0,1.25-.37,1.64,1.64,0,0,0,.4-1.25V24a2.34,2.34,0,0,1-1.94.78,2.07,2.07,0,0,1-1.1-.29,2,2,0,0,1-.74-.82,2.61,2.61,0,0,1-.26-1.19v-3.5a.72.72,0,0,1,.2-.52.74.74,0,0,1,1,0,.72.72,0,0,1,.2.52V22a1.5,1.5,0,0,0,.33,1.09,1.31,1.31,0,0,0,1,.33,1.26,1.26,0,0,0,1-.37,1.48,1.48,0,0,0,.34-1.05V18.93a.72.72,0,0,1,.2-.52.74.74,0,0,1,1,0Z"/><path class="cls-2" d="M127.88,18.8a3.77,3.77,0,0,1,.46,2v3.07a.72.72,0,0,1-.2.52.74.74,0,0,1-1,0,.72.72,0,0,1-.2-.52V20.81a1.82,1.82,0,0,0-.26-1,1,1,0,0,0-.91-.38,1.37,1.37,0,0,0-1.05.4,1.42,1.42,0,0,0-.38,1v3.07a.72.72,0,0,1-.2.52.74.74,0,0,1-1,0,.72.72,0,0,1-.2-.52V20.81a1.82,1.82,0,0,0-.26-1,1,1,0,0,0-.91-.38,1.37,1.37,0,0,0-1,.4,1.42,1.42,0,0,0-.38,1v3.07a.72.72,0,0,1-.2.52.74.74,0,0,1-1,0,.72.72,0,0,1-.2-.52v-5a.72.72,0,0,1,.2-.52.74.74,0,0,1,1,0,.72.72,0,0,1,.2.52v.19a2.93,2.93,0,0,1,.82-.74,2.08,2.08,0,0,1,1.11-.31,1.82,1.82,0,0,1,1.93,1.32,2.83,2.83,0,0,1,.83-.91,2.09,2.09,0,0,1,1.27-.41A1.79,1.79,0,0,1,127.88,18.8Z"/><path class="cls-2" d="M130,24.42a.72.72,0,0,1-.19-.53v-.2a.65.65,0,0,1,.72-.72h.16a.65.65,0,0,1,.72.72v.2a.65.65,0,0,1-.72.72h-.16A.72.72,0,0,1,130,24.42Z"/><path class="cls-2" d="M132.94,17.28a.56.56,0,0,1-.17-.47v-.23a.55.55,0,0,1,.18-.47,1.35,1.35,0,0,1,1.16,0,.57.57,0,0,1,.17.47v.23a.55.55,0,0,1-.17.47,1,1,0,0,1-.59.13A1,1,0,0,1,132.94,17.28ZM134,24.4a.74.74,0,0,1-1,0,.72.72,0,0,1-.2-.52v-5a.72.72,0,0,1,.2-.52.74.74,0,0,1,1,0,.72.72,0,0,1,.2.52v5A.72.72,0,0,1,134,24.4Z"/><path class="cls-2" d="M141.46,23.13a3.05,3.05,0,0,1-1.18,1.18,3.46,3.46,0,0,1-3.31,0,3.06,3.06,0,0,1-1.18-1.18,3.65,3.65,0,0,1,0-3.44A3.1,3.1,0,0,1,137,18.5a3.42,3.42,0,0,1,3.31,0,3.09,3.09,0,0,1,1.18,1.19,3.65,3.65,0,0,1,0,3.44Zm-1.25-2.77a1.81,1.81,0,0,0-.66-.71,1.8,1.8,0,0,0-1.84,0,1.81,1.81,0,0,0-.66.71,2.2,2.2,0,0,0-.25,1,2.16,2.16,0,0,0,.25,1,1.82,1.82,0,0,0,.66.71,1.8,1.8,0,0,0,1.84,0,1.82,1.82,0,0,0,.66-.71,2.17,2.17,0,0,0,.25-1A2.2,2.2,0,0,0,140.2,20.36Z"/></g></g></svg>