<svg xmlns="http://www.w3.org/2000/svg" viewBox="0 0 205.72 300"><defs><style>.cls-1{fill:#fff;}</style></defs><title>bitcoin</title><g id="Calque_2" data-name="Calque 2"><g id="Calque_1-2" data-name="Calque 1"><path class="cls-1" d="M195.25,163.53q-10.33-13.6-31.46-21.09,13-7.49,19.6-19.06t6.47-27q-.19-30.65-22-46.62T104.76,34l-10,.06q-.08-13.88-.17-27.77c-.05-8.51-15.45-8.42-15.4.09q.08,13.88.17,27.77l-10,.06q-.08-13.88-.17-27.77c-.05-8.51-15.45-8.42-15.4.09q.08,13.88.17,27.77l-40.42.25q-6.64,0-10.13,3.68T0,48.74q0,8,4.36,11t19.35,2.91l6.44,0,1.07,175.9-6.44,0q-16.21.1-20.48,3T.07,252.18q0,7,3.48,10.52t10.27,3.45l41.59-.25.17,27.77c.05,8.51,15.45,8.42,15.4-.09L70.8,265.8l10-.06L81,293.51c.05,8.51,15.45,8.42,15.4-.09l-.17-27.77,5.07,0,16.79-.1q21.47-.13,33.17-2.64a72.2,72.2,0,0,0,21.23-8,68.65,68.65,0,0,0,24.65-24.16,61.76,61.76,0,0,0,8.59-32.46Q205.59,177.13,195.25,163.53Zm-86-101.39Q131.87,62,144,71.2t12.27,26.58q.11,18.35-13.21,27.22t-41,9l-6.63,0Q95.19,98.14,95,62.22Zm-29.64.18q.22,35.92.44,71.84l-10,.06q-.22-35.92-.44-71.84Zm-8.94,176-.49-80,10-.06.49,80Zm86.26-9.8q-15,9.37-51.68,9.59l-9.17.06-.49-80,11.12-.07q36.12-.22,50.53,8.87t14.54,30.76Q171.87,219.12,156.89,228.48Z"/></g></g></svg>