<?xml version="1.0" encoding="utf-8"?>
<!-- Generator: Adobe Illustrator 21.0.0, SVG Export Plug-In . SVG Version: 6.00 Build 0)  -->
<svg version="1.1" id="Calque_1" xmlns="http://www.w3.org/2000/svg" xmlns:xlink="http://www.w3.org/1999/xlink" x="0px" y="0px"
	 viewBox="0 0 713 713" style="enable-background:new 0 0 713 713;" xml:space="preserve">
<style type="text/css">
	.st0{clip-path:url(#SVGID_2_);}
	.st1{clip-path:url(#SVGID_4_);fill:#DE2910;}
	.st2{fill:#FFDE00;}
</style>
<title>flag_CN</title>
<g>
	<defs>
		<circle id="SVGID_1_" cx="356.5" cy="356.5" r="356.5"/>
	</defs>
	<clipPath id="SVGID_2_">
		<use xlink:href="#SVGID_1_"  style="overflow:visible;"/>
	</clipPath>
	<g class="st0">
		<g>
			<defs>

					<rect id="SVGID_3_" x="315.2" y="-266.8" transform="matrix(0.205 -0.9788 0.9788 0.205 123.9863 1005.601)" width="731.5" height="1386.6"/>
			</defs>
			<clipPath id="SVGID_4_">
				<use xlink:href="#SVGID_3_"  style="overflow:visible;"/>
			</clipPath>
			<polygon class="st1" points="1284.6,926.6 -72.5,642.4 77.4,-73.7 1434.5,210.5 1284.6,926.6 			"/>
		</g>
		<polygon class="st2" points="242.7,31.4 251.5,113 331.8,129.8 256.9,163.4 265.8,245.1 210.6,184.2 135.8,217.9 176.6,146.6
			121.5,85.8 201.8,102.6 242.7,31.4 		"/>
		<polygon class="st2" points="442.2,42.8 434.3,67.8 455.6,83 429.4,83.2 421.5,108.2 413.2,83.4 387,83.6 408.1,68 399.8,43.2
			421.1,58.4 442.2,42.8 		"/>
		<polygon class="st2" points="508.7,140.2 492,160.4 506.1,182.5 481.7,172.9 465,193.1 466.6,166.9 442.3,157.3 467.6,150.8
			469.3,124.6 483.3,146.7 508.7,140.2 		"/>
		<polygon class="st2" points="462.2,231.7 465.9,257.8 491.8,262.3 468.2,273.9 471.8,299.9 453.6,281 430,292.5 442.3,269.3
			424,250.4 449.9,255 462.2,231.7 		"/>
		<polygon class="st2" points="388.3,293.1 381.5,318.4 403.6,332.7 377.3,334.1 370.5,359.5 361.1,335 334.9,336.4 355.3,319.9
			345.8,295.3 367.9,309.6 388.3,293.1 		"/>
	</g>
</g>
</svg>
