<svg xmlns="http://www.w3.org/2000/svg" xmlns:xlink="http://www.w3.org/1999/xlink" viewBox="0 0 1222.86 713.3"><defs><style>.cls-1{fill:none;}.cls-2{clip-path:url(#clip-path);}.cls-3{clip-path:url(#clip-path-2);}.cls-4{fill:#fff;}.cls-5{fill:#dc0032;}.cls-6{fill:#0d1e7e;}</style><clipPath id="clip-path"><circle class="cls-1" cx="611.58" cy="356.5" r="356.5"/></clipPath><clipPath id="clip-path-2"><rect class="cls-1" width="1222.86" height="713.3"/></clipPath></defs><title>flag_EN</title><g id="Calque_2" data-name="Calque 2"><g id="Drapeau"><g class="cls-2"><g id="UNITED_KINGDOM" data-name="UNITED KINGDOM"><g class="cls-3"><rect class="cls-4" width="1222.86" height="713.3"/><polygon class="cls-5" points="818.8 257.89 1222.86 31.7 1222.86 0 1195 0 734.29 257.89 818.8 257.89"/><polygon class="cls-5" points="799.73 469.71 1222.86 706.5 1222.86 659.18 884.27 469.71 799.73 469.71"/><polygon class="cls-5" points="0 54.3 361.97 257.89 446.54 257.89 0 6.94 0 54.3"/><polygon class="cls-5" points="427.37 469.71 0 709.17 0 713.3 77.21 713.3 511.98 469.71 427.37 469.71"/><polygon class="cls-6" points="1139.17 0 711.02 0 711.02 239.78 1139.17 0"/><polygon class="cls-6" points="521.98 0 95.54 0 521.98 239.78 521.98 0"/><polygon class="cls-6" points="1222.86 257.89 1222.86 94.25 932.41 257.89 1222.86 257.89"/><polygon class="cls-6" points="1222.86 631.6 1222.86 469.71 932.41 469.71 1222.86 631.6"/><polygon class="cls-6" points="119.73 713.3 521.98 713.3 521.98 487.89 119.73 713.3"/><polygon class="cls-6" points="711.02 713.3 1114.55 713.3 711.02 487.89 711.02 713.3"/><polygon class="cls-6" points="0 469.71 0 638.9 300.56 469.71 0 469.71"/><polygon class="cls-6" points="0 257.89 300.56 257.89 0 88.45 0 257.89"/><polygon class="cls-5" points="559.8 0 559.8 300.27 0 300.27 0 427.44 559.8 427.44 559.8 713.3 673.2 713.3 673.2 427.44 1222.86 427.44 1222.86 300.27 673.2 300.27 673.2 0 559.8 0"/></g></g></g></g></g></svg>