<?xml version="1.0" encoding="utf-8"?>
<!-- Generator: Adobe Illustrator 21.0.0, SVG Export Plug-In . SVG Version: 6.00 Build 0)  -->
<svg version="1.1" id="Calque_1" xmlns="http://www.w3.org/2000/svg" xmlns:xlink="http://www.w3.org/1999/xlink" x="0px" y="0px"
	 viewBox="0 0 713 713" style="enable-background:new 0 0 713 713;" xml:space="preserve">
<style type="text/css">
	.st0{clip-path:url(#SVGID_2_);}
	.st1{clip-path:url(#SVGID_4_);}
	.st2{fill:#FFFFFF;}
	.st3{fill:#DC0032;}
	.st4{fill:#0D1E7E;}
</style>
<title>flag_EN</title>
<g>
	<g>
		<g id="Calque_2">
			<defs>
				<circle id="SVGID_1_" cx="356.7" cy="356.4" r="356.5"/>
			</defs>
			<clipPath id="SVGID_2_">
				<use xlink:href="#SVGID_1_"  style="overflow:visible;"/>
			</clipPath>
			<g id="Drapeau" class="st0">
				<g>
					<g id="UNITED_KINGDOM">
						<defs>
							<rect id="SVGID_3_" x="-254.9" y="-0.1" width="1222.9" height="713.3"/>
						</defs>
						<clipPath id="SVGID_4_">
							<use xlink:href="#SVGID_3_"  style="overflow:visible;"/>
						</clipPath>
						<g class="st1">
							<rect x="-254.9" y="-0.1" class="st2" width="1222.9" height="713.3"/>
							<polygon class="st3" points="563.9,257.7 967.9,31.6 967.9,-0.1 940.1,-0.1 479.4,257.7 							"/>
							<polygon class="st3" points="544.8,469.6 967.9,706.3 967.9,659 629.3,469.6 							"/>
							<polygon class="st3" points="-254.9,54.2 107,257.7 191.6,257.7 -254.9,6.8 							"/>
							<polygon class="st3" points="172.4,469.6 -254.9,709 -254.9,713.2 -177.7,713.2 257.1,469.6 							"/>
							<polygon class="st4" points="884.2,-0.1 456.1,-0.1 456.1,239.6 							"/>
							<polygon class="st4" points="267,-0.1 -159.4,-0.1 267,239.6 							"/>
							<polygon class="st4" points="967.9,257.7 967.9,94.1 677.5,257.7 							"/>
							<polygon class="st4" points="967.9,631.4 967.9,469.6 677.5,469.6 							"/>
							<polygon class="st4" points="-135.2,713.2 267,713.2 267,487.7 							"/>
							<polygon class="st4" points="456.1,713.2 859.6,713.2 456.1,487.7 							"/>
							<polygon class="st4" points="-254.9,469.6 -254.9,638.8 45.6,469.6 							"/>
							<polygon class="st4" points="-254.9,257.7 45.6,257.7 -254.9,88.3 							"/>
							<polygon class="st3" points="304.9,-0.1 304.9,300.1 -254.9,300.1 -254.9,427.3 304.9,427.3 304.9,713.2 418.3,713.2 
								418.3,427.3 967.9,427.3 967.9,300.1 418.3,300.1 418.3,-0.1 							"/>
						</g>
					</g>
				</g>
			</g>
		</g>
	</g>
</g>
</svg>
