<?xml version="1.0" encoding="utf-8"?>
<!-- Generator: Adobe Illustrator 21.0.0, SVG Export Plug-In . SVG Version: 6.00 Build 0)  -->
<svg version="1.1" xmlns="http://www.w3.org/2000/svg" xmlns:xlink="http://www.w3.org/1999/xlink" x="0px" y="0px"
	 viewBox="0 0 713 713" style="enable-background:new 0 0 713 713;" xml:space="preserve">
<style type="text/css">
	.st0{display:none;}
	.st1{display:inline;}
	.st2{clip-path:url(#SVGID_2_);}
	.st3{fill:#006233;}
	.st4{fill:#FFFFFF;stroke:#FFFFFF;stroke-width:0.4008;}
	.st5{fill:#FFFFFF;stroke:#FFFFFF;}
	.st6{fill:#FFFFFF;stroke:#FFFFFF;stroke-width:4.008;stroke-linecap:round;stroke-linejoin:round;}
	.st7{fill:#FFFFFF;}
	.st8{fill:#FFFFFF;stroke:#000000;stroke-width:8.012;}
	.st9{fill:none;stroke:#F7C608;stroke-width:8.1208;stroke-linecap:round;stroke-linejoin:round;}
	.st10{fill:#F7C608;}
</style>
<g id="Fond" class="st0">
	<rect x="-155.5" y="-27.5" class="st1" width="1024" height="768"/>
</g>
<g id="Règles" class="st0">
</g>
<g id="Drapeau">
	<g>
		<defs>
			<circle id="SVGID_1_" cx="356.5" cy="356" r="356.5"/>
		</defs>
		<clipPath id="SVGID_2_">
			<use xlink:href="#SVGID_1_"  style="overflow:visible;"/>
		</clipPath>
		<g id="g13237" transform="translate(-2.7257 -5.6087)" class="st2">
			<path id="_x32_1399192" class="st3" d="M932.9,744.6v-765l-1147.4,0v765L932.9,744.6L932.9,744.6z"/>
			<g id="g13004" transform="matrix(1.1437 0 0 1.1446 -.39167 -145.67)">
				<g id="g9244" transform="matrix(1.7598 0 0 1.6 -2175.2 -3398.1)">
					<path id="path3159" class="st4" d="M1367.2,2408.6c-7.4,11.1-2.1,18.4,5.6,18.9c5,0.4,15.5-7.1,15.5-16l-2.9-1.6
						c1.6,4.5-0.1,6-3.5,9.1C1375.3,2425.1,1361.5,2425.5,1367.2,2408.6z"/>
					<path id="path3115" class="st5" d="M1426.1,2437.8c41.8,1.2,55.1-39.3,29.3-73.9l-2.6,3.8c1.7,16.1,4.1,32,4.3,48.6
						c-5,5.9-12.4,3.7-13.8-2.9c0.1-8.9-2.8-16.5-6.5-23.7l-2.1,3.8c2.4,5.9,5,12.6,5.6,19.9c-11.9,14.3-25.1,17.2-20.2-1.6
						c-9.4,16.5,4.8,28.1,21,2.7c3.5,17.3,16.9,6.6,17.7,2.8c1.5-11.3,0.7-29.6-2.2-44.1c11.6,20.1,12,34.7,5.8,44.4
						C1455.5,2428.5,1440.5,2433.6,1426.1,2437.8L1426.1,2437.8z"/>
					<path id="path3117" class="st5" d="M1449.8,2392.1c-8.9,0.7-13.5-1.2-8.7-7.8c4.8-6.5,9.3-1.3,10.5,7.3
						c1.1,8.1-15.7,18.5-21.5,18.5c-8.8,0-12.9-11.3-4.8-21.5C1414.8,2418.3,1447.8,2401.1,1449.8,2392.1z M1443.6,2385.2
						c-1.1-0.1-1.9,1.9-1.3,2.2c1.6,1.1,4.1,0.4,4.3-0.1C1447.1,2386.1,1445.1,2385.3,1443.6,2385.2L1443.6,2385.2z"/>
					<path id="path3140" class="st5" d="M1401.2,2406.1c-8.6,16.9,0,23.9,11,22c6.4-1.2,14.6-5.7,19.3-11.9
						c0.1-13.7-0.1-27.3-1.3-40.6c4.3-5.1-0.4-5.1-2-10.6c-0.7,3.2-2.6,6.7-0.8,9.2c1.2,13.4,1.9,26.9,1.9,40.8
						c-8.7,7-15.2,9.5-19.8,9.5C1399.9,2424.3,1397.8,2416.2,1401.2,2406.1L1401.2,2406.1z"/>
					<path id="path3150" class="st5" d="M1418.8,2410.6c-0.1-12.8-0.3-27.2-1.5-36.1c4.5-5-0.2-5.1-1.7-10.6
						c-0.9,3.2-2.8,6.6-1.1,9.1c0.7,13.6,1.5,27.3,1.6,40.9C1417.2,2413.2,1418.3,2413,1418.8,2410.6L1418.8,2410.6z"/>
					<path id="path3152" class="st4" d="M1385.4,2410c-1.1-1.4-1.9-2.9-2.8-4.3c-0.1-1.9,1.1-3.7,1.3-4.7c1.5,2.3,2.3,4,3.5,5.1
						 M1389.1,2407c2.1,0.9,4.8,0.9,7.2,0.9c9.4,0.2,19.3-1.4,18.2,11.3c-0.9,11.3-10.3,17.8-18.7,17.7
						c-11.9-0.1-22.2-13.3-3.7-37.6c1.8-0.3,4.1,0.2,6,0.4c3.3,0.3,6.7-0.1,10.5-3.2c-0.5-8-0.5-15.6-1.4-22.8
						c-1.7-2.6,0.2-6,1.1-9.1c1.5,5.6,6.1,5.7,1.7,10.7c1.1,8,1.2,16.2,1.2,21.1c-2.2,3.4-4,7-10.5,8.4c-6.7-1-9.7-10.3-16.6-7.2
						c1.9-8.4,19.6-10.3,21.4-3.7c-1.2,6.9-17.7,4.2-22.1,26.6c-1.3,6.9,5.9,13.3,13.4,12.8c7.3-0.5,15.1-5.6,15.9-14.1
						c0.6-7.1-9.5-6.3-13.7-6.2c-6.1,0.1-10-0.8-12.3-2.1 M1392.9,2395.4c1.1-1,4.9-1.7,6.3-0.1c-1,0.7-2,1.4-2.9,2.3
						C1394.9,2396.9,1393.9,2396.1,1392.9,2395.4z"/>
					<path id="path3161" class="st5" d="M1402.2,2371.7c1,2.3,1.5,3.8,1.5,6c-0.6,3-3.2,5.8-5.8,5.8c-1.6,0.1-3.5-0.4-4.8-3
						c-0.1-0.3-0.8-1.1-1.5-0.7c-2.9,4.8-5,6.8-7.7,6.7c-5.2-0.1-3.7-4.7-8.5-6.2c-2-0.1-5.3,2-7,6c-6.4,18.2-12.3-0.1-9.8-8.5
						c0.4,8.1,2.3,12.9,4.3,12.8c1.5-0.1,2.8-3.5,4.6-7.1c1.4-2.7,4.9-7.6,8.5-7.6c3.3,0.1,1.2,6.2,7.9,6.1c3.2-0.1,6.2-2.5,9.1-7.5
						c0.7-0.1,0.8,1.1,1,1.5c0.5,1.7,3.4,6.3,7.3,2.1c-0.2-0.9-0.1-2.4-1.1-2.8L1402.2,2371.7z"/>
					<path id="path3163" class="st4" d="M1423.1,2356.6c-3.5,1.7-6.1,0.1-7.6-1.4c2.6-0.5,4.5-1.4,5.1-3.4c-1.1-2.6-3.9-3.7-7.7-3.7
						c-5.1,0.1-7.8,2.2-8.1,5c2.4,0.1,4.5-0.6,5.4,1.7c-4.2,2.1-9.2,2.8-14.6,2.8c-8.8,0.5-10.1-3.5-12.4-7
						c-0.2-0.2-0.9-0.6-1.3-0.5c-2.7,0-4.7,9.5-7.8,9.5c-3.1-0.4-2.4-6.1-3.3-9.4c-0.7,5.1,0.9,24.2,10.4,3.5
						c0.3-0.7,0.7-0.5,0.9,0.1c2.6,5.8,7.7,7.8,13.3,8.1c4.7,0.3,10.6-1.8,17-5.4c1.7,1.9,3,4,6.6,4.4c4.2,0.2,8.6-2.8,9.6-6.5
						c0.5-1.9,0.6-5.7-1.4-5.8c-2.8-0.1-4.9,6.8-4.2,13c0.1-0.1,0.4-1.5,0.4-1.5 M1411,2351.6c1.9-0.9,3.7-1.3,5.1,0.6
						c-1.1,0.4-1.8,0.7-2.4,1.1C1412.9,2352.8,1411.8,2352.5,1411,2351.6z M1424.7,2355.9c0.5-2,0.7-3.7,2.4-4.7
						C1427.4,2353.3,1427.5,2354.5,1424.7,2355.9z"/>
					<path id="path3169" class="st4" d="M1435.8,2359.1c-0.5-1.7-1.1-3.3-1.3-5.2c-0.4-3.8,2.9-6,5.9-5.7c3.1,0.3,5.1,1.5,8,2.5
						c2.3,0.8,5.4,1.4,8.3,2.2c1.7,0.7,0,2.7-0.4,3c-7.4,2.9-12.6,7.5-17.3,7.7c-2.8,0.1-5.3-1.7-7.6-5.4
						c-0.1-7.3-0.4-15.8-1.1-21.2c1.1-1.1,1.3-1.9,1.8-2.8c0.6,7.1,0.8,14.5,0.9,22C1433.8,2357.4,1434.5,2358.5,1435.8,2359.1
						L1435.8,2359.1z M1440.6,2359.6c-4,1.1-3.5-2.2-3.8-4.3c-0.4-2.4-0.1-5.1,2.9-4.4c4,1.1,7.6,2.5,11.1,4L1440.6,2359.6z"/>
					<path id="path3173" class="st4" d="M1436.7,2363.2l0.5,2.7h0.4l-0.2-2.5"/>
					<path id="path5196" class="st6" d="M1373.6,2391l2-2.1l2.3,2l-2.1,1.9L1373.6,2391z"/>
					<path id="path6168" class="st6" d="M1378.7,2390.3l2-2.1l2.3,2l-2.1,1.9L1378.7,2390.3z"/>
					<path id="path6170" class="st6" d="M1364.6,2369l2-2.1l2.3,2l-2.1,1.9L1364.6,2369z"/>
					<path id="path6172" class="st6" d="M1365.5,2375l2-2.1l2.3,2l-2.1,1.9L1365.5,2375z"/>
					<path id="path6174" class="st6" d="M1402.3,2385.2l1.9-1.5l1.7,1.9l-1.9,1.4L1402.3,2385.2z"/>
					<path id="path6176" class="st6" d="M1377.7,2346.3l1.3-1.3l1.5,1.3l-1.4,1.3L1377.7,2346.3z"/>
					<path id="path6178" class="st6" d="M1381.1,2345.9l1.3-1.4l1.5,1.3l-1.4,1.2L1381.1,2345.9z"/>
					<path id="path6180" class="st6" d="M1451.4,2361.3l-1.3,1.1l-1.2-1.2l1.3-1L1451.4,2361.3z"/>
					<path id="path9240" class="st4" d="M1392.1,2399.3l-0.1,2.3l3.6,0.3l2.9-2.2L1392.1,2399.3L1392.1,2399.3z"/>
					<path id="path9242" class="st5" d="M1422.6,2357l1.1-0.2l-0.1,3l-0.7,0.3L1422.6,2357L1422.6,2357z"/>
				</g>
				<path id="path2722" class="st7" d="M314.4,563.2c71.6,0,129.8-53,129.8-118c0-35.8-17.6-67.8-45.2-89.4
					c16.6,17.8,26.7,41.1,26.7,66.6c0,56.5-49.8,102.4-111.3,102.4c-61.5,0-111.3-45.9-111.3-102.4c0-25.4,10.1-48.8,26.7-66.6
					c-27.7,21.6-45.2,53.6-45.2,89.4C184.6,510.3,242.8,563.2,314.4,563.2L314.4,563.2z"/>
				<g id="g2908" transform="matrix(1.1355 0 0 1.0324 2.7256 -21.429)">
					<path id="path2910" class="st8" d="M259,629.9c-25.2,12.6-56.7,9.2-83.4-8c-1.1-0.6-1.7,0.3-0.6,3.4c2.9,8.3,5.2,14.9-3.4,27.2
						c-3.7,5.4,0.6,6.3,6.9,5.7c32.1-3.2,63.6-10.3,78.8-16.3L259,629.9z"/>
					<path id="path2912" class="st8" d="M258.5,644.8c-10,4-27.2,8.9-46.4,12.3c-7.7,1.1-7.5,6,6.3,7.7c14,1.4,32.1-8.6,43-17.5
						L258.5,644.8z"/>
					<path id="path2914" class="st8" d="M274.5,617.3c3.4,0,9.7-1.4,16-2.3c11.7-2,3.2,16-16,16v6c19.5,0,39.8-21.2,35.5-30.7
						c-6-13.8-22.6-2-35.5-2c-12.9,0-29.5-11.7-35.5,2c-4.3,9.5,16,30.7,35.5,30.7v-6c-19.2,0-27.8-18.1-16-16
						C264.8,615.9,271.1,617.3,274.5,617.3z"/>
					<path id="path2916" class="st8" d="M290,629.9c25.2,12.6,56.7,9.2,83.4-8c1.1-0.6,1.7,0.3,0.6,3.4c-2.9,8.3-5.2,14.9,3.4,27.2
						c3.7,5.4-0.6,6.3-6.9,5.7c-32.1-3.2-63.6-10.3-78.8-16.3L290,629.9z"/>
					<path id="path2918" class="st8" d="M290.6,644.8c10,4,26.9,8.9,46.4,12.3c7.7,1.1,7.5,6-6.3,7.7c-14,1.4-32.1-8.6-43-17.5
						L290.6,644.8z"/>
					<path id="path2920" class="st8" d="M275.4,642c0.6,4.9,1.4,15.5,8,10.9c8.9-6,10.9-10.6,10.9-19.2c0-5.4-6.6-13.5-19.8-13.5
						s-19.8,8-19.8,13.5c0,8.6,2,13.2,10.9,19.2c6.6,4.6,7.2-6,8-10.9C273.9,640.3,275.4,640.8,275.4,642z"/>
				</g>
				<g id="g2724" transform="matrix(1.1355 0 0 1.0324 2.7256 -21.429)">
					<path id="path2726" class="st8" d="M266.2,274.9c-3.7-21.2-35-22.6-39.8-26.1c-5.7-3.7-4.9,0-2.9,5.7
						c5.7,14.9,25.2,20.9,34.1,22.6C264.8,278.3,267.1,278.9,266.2,274.9z"/>
					<path id="path2728" class="st8" d="M275.7,275.4c3.2-21.8-27.8-32.1-31.5-37c-4.3-5.2-4.9-2-2.9,4
						c3.7,12.9,17.2,28.1,25.2,32.1C273.1,278,275.1,279.5,275.7,275.4z"/>
					<path id="path2730" class="st8" d="M301.2,288.1c2.9-26.1-22.4-30.1-28.9-38.4c-4.3-5.2-4.6-2.3-3.2,3.7
						c2.9,13.2,15.5,28.7,23.2,33.5C298.3,290.6,300.9,292.1,301.2,288.1z"/>
					<path id="path2732" class="st8" d="M293.4,282.3c-26.1-16.9-44.4-7.5-51.9-8.3c-7.2-0.9-9.5,3.7,2.9,10.6
						c15.2,8.3,36.4,7.2,44.7,4C297.7,285.2,295.2,283.5,293.4,282.3z"/>
					<path id="path2734" class="st8" d="M332.7,293.8c-8-28.1-26.7-23.5-32.1-26.9c-5.4-3.4-6-2.6-4.9,3.7
						c2.3,11.2,21.5,23.5,30.9,27.2C330.1,298.9,334.4,300.7,332.7,293.8z"/>
					<path id="path2736" class="st8" d="M329,298.7c-22.4-18.1-39.8-4.6-46.7-6.6c-5.2-1.4-2.9,2-0.9,3.4
						c14.3,10,32.1,15.5,45.9,9.2C332.7,302.4,333,301.8,329,298.7z"/>
					<path id="path2738" class="st8" d="M377.4,317c0.3-17.8-36.4-25.2-44.1-36.1c-4.6-6.6-8.6-3.2-6.3,7.5
						c3.4,13.8,28.7,28.9,42.4,31.8C377.7,321.9,377.4,319,377.4,317z"/>
					<path id="path2740" class="st8" d="M376.3,320.2c-23.2-20.9-42.7-14-49.9-16c-7.2-1.7-10,2.6,1.1,11.2
						c13.8,10.3,35,12.3,43.8,10.3C380.3,323.6,378,321.6,376.3,320.2z"/>
					<path id="path2742" class="st8" d="M417.8,350.8c-6.6-30.4-27.5-36.7-32.7-42.4c-4.9-5.7-10-4-5.7,9.7
						c5.2,16.3,22.1,30.7,30.9,34.1C418.9,356,418.4,353.1,417.8,350.8z"/>
					<path id="path2744" class="st8" d="M417.5,354.8c-16.9-27.2-39-26.4-45.9-30.1c-6.6-4-11.2-0.6-2.3,11.2
						c10.3,14.3,31.5,22.4,41.3,22.9C420.4,359.4,418.7,356.8,417.5,354.8z"/>
					<path id="path2746" class="st8" d="M439.3,387.2c9.7-30.9-12.6-42.4-14.9-47.6c-2.6-5.2-5.2-5.2-6.6,0.3
						c-6.3,22.1,14,43.6,17.2,47.9C438.1,391.8,438.7,389.8,439.3,387.2z"/>
					<path id="path2748" class="st8" d="M434.7,395.8c-7.7-34.7-28.1-32.7-32.7-37.5c-4.9-4.9-5.4-1.4-4.6,4.9
						c2.3,16.9,22.6,28.4,31.8,34.1C432.1,399,435.6,401,434.7,395.8z"/>
					<path id="path2750" class="st8" d="M454.2,436.5c14-32.7-2.6-54.7-7.7-59.6c-5.2-4.6-8.3-6.6-6.6,0c2.3,10-5.7,35.8,6.6,54.7
						C450.5,437.9,451,444,454.2,436.5z"/>
					<path id="path2752" class="st8" d="M446.7,443.1c3.2-20.1-8.3-38.4-20.6-45.6c-7.2-4.3-7.5-3.2-7.5,2.9
						c0.6,18.6,18.1,34.1,23.2,42.7C446.7,451.1,446.5,445.1,446.7,443.1z"/>
					<path id="path2754" class="st8" d="M443.6,495.2c-10.3-37.8,11.2-59.6,17.8-63.9c6.3-4.6,10.3-6.3,7.5,0.9
						c-4.3,10.6,0.3,40.1-16,58.7C447.6,497.3,445.6,503.8,443.6,495.2z"/>
					<path id="path2756" class="st8" d="M445.9,486.9c8.6-33-10-51.6-15.8-55.3c-5.4-3.7-8.9-5.2-6.3,0.9c3.4,9.2-0.3,35,14,51
						C442.4,488.9,444.2,494.4,445.9,486.9z"/>
					<path id="path2758" class="st8" d="M435.3,471.5c-15.5,16.6-15.8,41-8.9,55.3c4.3,8.3,4.9,7.7,8.9,1.7
						c10.9-17.5,4.3-42.7,4.9-53.9C440.4,464,437,469.7,435.3,471.5z"/>
					<path id="path2760" class="st8" d="M460.8,497.8c0,22.9-14,41.6-28.9,47.3c-8.6,3.2-8.6,2.3-7.5-4.6
						c4-25.8,23.8-35.2,30.9-43.6C462.2,488.9,460.8,495.5,460.8,497.8z"/>
					<path id="path2762" class="st8" d="M407.5,566c25.2-22.9,11.7-39,12.9-53.9c0.6-8-2.6-6-5.4-3.2c-16,15.8-16.9,43.8-13.5,54.7
						C402.9,568.6,405.2,568,407.5,566z"/>
					<path id="path2764" class="st8" d="M441.3,551.1c-8.3,25.2-30.4,40.7-49,41.6c-10.9,0.6-10.6-0.3-6.9-7.7
						c14-26.9,39-30.1,50.2-37C445.9,541.7,442.2,548.5,441.3,551.1z"/>
					<path id="path2766" class="st8" d="M372.8,598.4c32.7-16.3,26.1-43.6,32.1-50.4c4.3-4.9-0.9-4.3-3.4-2.6
						c-19.2,11.2-34.7,28.9-35,47.9C366.5,600.4,367.1,601.3,372.8,598.4z"/>
					<path id="path2768" class="st8" d="M328.1,628.8c41.3,6.6,60.5-24.6,72.5-27.5c6.3-1.4,1.7-4-1.4-4.3
						c-27.5-3.2-62.5,9.7-73.1,24.1C321.8,626.8,321.8,627.9,328.1,628.8z"/>
					<path id="path2770" class="st8" d="M369.9,579.8c-8.3,27.2-39.3,49.6-62.5,51.3c-10.9,0.9-10.9-0.3-6.9-7.5
						c18.6-33.8,51-39.5,62.5-48.1C372.8,568,370.8,577.2,369.9,579.8z"/>
					<path id="path2772" class="st8" d="M282.8,274.9c3.7-21.2,35-22.6,39.8-26.1c5.7-3.7,4.9,0,2.9,5.7
						c-5.7,14.9-25.2,20.9-34.1,22.6C284.3,278.3,282,278.9,282.8,274.9z"/>
					<path id="path2774" class="st8" d="M273.4,275.4c-3.2-21.8,27.8-32.1,31.5-37c4.3-5.2,4.9-2,2.9,4
						c-3.7,12.9-17.2,28.1-25.2,32.1C275.9,278,273.9,279.5,273.4,275.4z"/>
					<path id="path2776" class="st8" d="M247.9,288.1c-2.9-26.1,22.4-30.1,28.9-38.4c4.3-5.2,4.6-2.3,3.2,3.7
						c-2.9,13.2-15.5,28.7-23.2,33.5C250.7,290.6,248.2,292.1,247.9,288.1z"/>
					<path id="path2778" class="st8" d="M255.6,282.3c26.1-16.9,44.4-7.5,51.9-8.3c7.2-0.9,9.5,3.7-2.9,10.6
						c-15.2,8.3-36.4,7.2-44.7,4C251.3,285.2,253.9,283.5,255.6,282.3z"/>
					<path id="path2780" class="st8" d="M216.3,293.8c8-28.1,26.7-23.5,32.1-26.9c5.4-3.4,6-2.6,4.9,3.7
						c-2.3,11.2-21.5,23.5-30.9,27.2C218.9,298.9,214.6,300.7,216.3,293.8z"/>
					<path id="path2782" class="st8" d="M220.1,298.7c22.4-18.1,39.8-4.6,46.7-6.6c5.2-1.4,2.9,2,0.9,3.4
						c-14.3,10-32.1,15.5-45.9,9.2C216.3,302.4,216.1,301.8,220.1,298.7z"/>
					<path id="path2784" class="st8" d="M171.6,317c-0.3-17.8,36.4-25.2,44.1-36.1c4.6-6.6,8.6-3.2,6.3,7.5
						c-3.4,13.8-28.7,28.9-42.4,31.8C171.4,321.9,171.6,319,171.6,317z"/>
					<path id="path2786" class="st8" d="M172.8,320.2c23.2-20.9,42.7-14,49.9-16c7.2-1.7,10,2.6-1.1,11.2
						c-13.8,10.3-35,12.3-43.8,10.3S171.1,321.6,172.8,320.2z"/>
					<path id="path2788" class="st8" d="M131.2,350.8c6.6-30.4,27.5-36.7,32.7-42.4c4.9-5.7,10-4,5.7,9.7
						c-5.2,16.3-22.1,30.7-30.9,34.1C130.1,356,130.7,353.1,131.2,350.8z"/>
					<path id="path2790" class="st8" d="M131.5,354.8c16.9-27.2,39-26.4,45.9-30.1c6.6-4,11.2-0.6,2.3,11.2
						c-10.3,14.3-31.5,22.4-41.3,22.9C128.7,359.4,130.4,356.8,131.5,354.8z"/>
					<path id="path2792" class="st8" d="M109.7,387.2c-9.7-30.9,12.6-42.4,14.9-47.6c2.6-5.2,5.2-5.2,6.6,0.3
						c6.3,22.1-14,43.6-17.2,47.9C110.9,391.8,110.3,389.8,109.7,387.2z"/>
					<path id="path2794" class="st8" d="M114.3,395.8c7.7-34.7,28.1-32.7,32.7-37.5c4.9-4.9,5.4-1.4,4.6,4.9
						c-2.3,16.9-22.6,28.4-31.8,34.1C116.9,399,113.5,401,114.3,395.8z"/>
					<path id="path2796" class="st8" d="M94.8,436.5c-14-32.7,2.6-54.7,7.7-59.6c5.2-4.6,8.3-6.6,6.6,0c-2.3,10,5.7,35.8-6.6,54.7
						C98.6,437.9,98,444,94.8,436.5z"/>
					<path id="path2798" class="st8" d="M102.3,443.1c-3.2-20.1,8.3-38.4,20.6-45.6c7.2-4.3,7.5-3.2,7.5,2.9
						c-0.6,18.6-18.1,34.1-23.2,42.7C102.3,451.1,102.6,445.1,102.3,443.1z"/>
					<path id="path2800" class="st8" d="M105.4,495.2c10.3-37.8-11.2-59.6-17.8-63.9c-6.3-4.6-10.3-6.3-7.5,0.9
						c4.3,10.6-0.3,40.1,16,58.7C101.4,497.3,103.1,503.8,105.4,495.2z"/>
					<path id="path2802" class="st8" d="M103.1,486.9c-8.6-33,10-51.6,15.8-55.3c5.4-3.7,8.9-5.2,6.3,0.9c-3.4,9.2,0.3,35-14,51
						C106.6,488.9,104.9,494.4,103.1,486.9z"/>
					<path id="path2804" class="st8" d="M113.8,471.5c15.5,16.6,15.8,41,8.9,55.3c-4.3,8.3-4.9,7.7-8.9,1.7
						c-10.9-17.5-4.3-42.7-4.9-53.9C108.6,464,112,469.7,113.8,471.5z"/>
					<path id="path2806" class="st8" d="M88.2,497.8c0,22.9,14,41.6,28.9,47.3c8.6,3.2,8.6,2.3,7.5-4.6c-4-25.8-23.8-35.2-30.9-43.6
						C86.8,488.9,88.2,495.5,88.2,497.8z"/>
					<path id="path2808" class="st8" d="M141.5,566c-25.2-22.9-11.7-39-12.9-53.9c-0.6-8,2.6-6,5.4-3.2c16,15.8,16.9,43.8,13.5,54.7
						C146.1,568.6,143.8,568,141.5,566z"/>
					<path id="path2810" class="st8" d="M107.7,551.1c8.3,25.2,30.4,40.7,49,41.6c10.9,0.6,10.6-0.3,6.9-7.7
						c-14-26.9-39-30.1-50.2-37C103.1,541.7,106.9,548.5,107.7,551.1z"/>
					<path id="path2812" class="st8" d="M176.2,598.4c-32.7-16.3-26.1-43.6-32.1-50.4c-4.3-4.9,0.9-4.3,3.4-2.6
						c19.2,11.2,34.7,28.9,35,47.9C182.5,600.4,182,601.3,176.2,598.4z"/>
					<path id="path2814" class="st8" d="M220.9,628.8c-41.3,6.6-60.5-24.6-72.5-27.5c-6.3-1.4-1.7-4,1.4-4.3
						c27.5-3.2,62.5,9.7,73.1,24.1C227.2,626.8,227.2,627.9,220.9,628.8z"/>
					<path id="path2816" class="st8" d="M179.1,579.8c8.3,27.2,39.3,49.6,62.5,51.3c10.9,0.9,10.9-0.3,6.9-7.5
						c-18.6-33.8-51-39.5-62.5-48.1C176.2,568,178.2,577.2,179.1,579.8z"/>
				</g>
				<g id="g2818" transform="matrix(1.1355 0 0 1.0324 2.7256 -21.429)">
					<path id="path2820" class="st3" d="M322.9,301.2c-5.4-4-25.5-1.7-29.2-4.3C300.9,303,316.9,298.7,322.9,301.2z"/>
					<path id="path2822" class="st3" d="M371.4,311.6c-4.3-7.7-29.8-12.9-33.5-19.8C344.4,305,364.2,303.2,371.4,311.6z"/>
					<path id="path2824" class="st3" d="M367.7,320.4c-9.5-9.2-31.5-5.4-38.1-10.9C345,323.6,353.6,312.7,367.7,320.4z"/>
					<path id="path2826" class="st3" d="M312.3,279.7c6,3.2,13.5,6.3,17.2,13.8c-4.3-5.7-12-8-18.3-12.9
						C311.5,280.6,312.1,280,312.3,279.7z"/>
					<path id="path2828" class="st3" d="M406.3,338.8c-3.7-8.6-16.9-18.1-18.1-21.2C392,328.7,402.9,331.3,406.3,338.8z"/>
					<path id="path2830" class="st3" d="M409.8,354c-11.5-18.1-29.5-16-36.7-22.9C378.5,337.6,399.2,341.9,409.8,354z"/>
					<path id="path2832" class="st3" d="M436.4,381.8c0.9-19.2-13.5-26.4-14-37.3C422.1,357.4,437,374.9,436.4,381.8z"/>
					<path id="path2834" class="st3" d="M429.3,392.1c-2.9-16.6-22.4-17.8-25.8-27.5C403.5,373.7,426.4,383.2,429.3,392.1z"/>
					<path id="path2836" class="st3" d="M445.3,382.6c10.3,12.6,3.2,31.8,7.5,45.9C447.6,418.2,450.2,392.4,445.3,382.6z"/>
					<path id="path2838" class="st3" d="M428.4,436.5c15.5,16.6,9.2,35.2,15.5,43.3C436.1,468.6,437.3,446.8,428.4,436.5z"/>
					<path id="path2840" class="st3" d="M460.5,438.8c-13.2,14.6-5.2,36.7-12,47C456.2,476.9,455.1,449.7,460.5,438.8z"/>
					<path id="path2842" class="st3" d="M443.9,438.8c-1.7-16.9-17.5-25.8-18.9-35C423.2,413,440.2,427.3,443.9,438.8z"/>
					<path id="path2844" class="st3" d="M435.9,479.2c2.6,11.7-6.9,37-4,44.7C425.5,510.4,437.3,484.9,435.9,479.2z"/>
					<path id="path2846" class="st3" d="M456.2,506.1c-6.3,20.9-18.9,19.5-22.9,32.1C436.1,526.2,452.8,515.3,456.2,506.1z"/>
					<path id="path2848" class="st3" d="M415.2,515.9c-8.3,14-1.4,30.1-8.3,40.1C416.7,546,411.5,527.3,415.2,515.9z"/>
					<path id="path2850" class="st3" d="M435.3,554.3c-10,18.6-30.7,16.9-39,30.4C404.6,567.7,430.1,564.9,435.3,554.3z"/>
					<path id="path2852" class="st3" d="M398.9,552c-17.8,12.3-12.3,25.2-25.8,39C390,577.2,388.6,562,398.9,552z"/>
					<path id="path2854" class="st3" d="M390.6,601.9c-17.2-0.6-41.8,21.8-56.7,20.1C348.7,625.1,376.3,605,390.6,601.9z"/>
					<path id="path2856" class="st3" d="M362.8,581.8c-1.1,17.5-45.9,28.7-50.7,40.4C317.5,606.7,356.8,595.3,362.8,581.8z"/>
					<path id="path2858" class="st3" d="M261.6,259.4c-5.7-4.9-12.6-8.9-14.6-13.8c1.4,6.3,7.2,10.9,12.9,15.2
						C260.5,260.5,261,259.7,261.6,259.4z"/>
					<path id="path2860" class="st3" d="M251.9,264.6c-8.9-4.3-19.2-4-23.8-10c2.9,6,12.6,8.3,20.9,11.5
						C249.9,265.4,251,264.8,251.9,264.6z"/>
					<path id="path2862" class="st3" d="M226.1,301.2c5.4-4,25.5-1.7,29.2-4.3C248.2,303,232.1,298.7,226.1,301.2z"/>
					<path id="path2864" class="st3" d="M177.7,311.6c4.3-7.7,29.8-12.9,33.5-19.8C204.6,305,184.8,303.2,177.7,311.6z"/>
					<path id="path2866" class="st3" d="M181.4,320.4c9.5-9.2,31.5-5.4,38.1-10.9C204,323.6,195.4,312.7,181.4,320.4z"/>
					<path id="path2868" class="st3" d="M219.5,293.5c5.4-11.5,20.9-12.9,24.9-19.8C238.4,284,225.2,285.8,219.5,293.5z"/>
					<path id="path2870" class="st3" d="M263.6,283.5c15.8-7.5,31.2-1.1,38.7-4.6C293.1,283.8,271.4,281.5,263.6,283.5z"/>
					<path id="path2872" class="st3" d="M142.7,338.8c3.7-8.6,16.9-18.1,18.1-21.2C157,328.7,146.1,331.3,142.7,338.8z"/>
					<path id="path2874" class="st3" d="M139.3,354c11.5-18.1,29.5-16,36.7-22.9C170.5,337.6,149.9,341.9,139.3,354z"/>
					<path id="path2876" class="st3" d="M112.6,381.8c-0.9-19.2,13.5-26.4,14-37.3C126.9,357.4,112,374.9,112.6,381.8z"/>
					<path id="path2878" class="st3" d="M119.8,392.1c2.9-16.6,22.4-17.8,25.8-27.5C145.6,373.7,122.6,383.2,119.8,392.1z"/>
					<path id="path2880" class="st3" d="M103.7,382.6c-10.3,12.6-3.2,31.8-7.5,45.9C101.4,418.2,98.8,392.4,103.7,382.6z"/>
					<path id="path2882" class="st3" d="M120.6,436.5c-15.5,16.6-9.2,35.2-15.5,43.3C112.9,468.6,111.7,446.8,120.6,436.5z"/>
					<path id="path2884" class="st3" d="M88.5,438.8c13.2,14.6,5.2,36.7,12,47C92.8,476.9,94,449.7,88.5,438.8z"/>
					<path id="path2886" class="st3" d="M105.2,438.8c1.7-16.9,17.5-25.8,18.9-35C125.8,413,108.9,427.3,105.2,438.8z"/>
					<path id="path2888" class="st3" d="M113.2,479.2c-2.6,11.7,6.9,37,4,44.7C123.5,510.4,111.7,484.9,113.2,479.2z"/>
					<path id="path2890" class="st3" d="M92.8,506.1c6.3,20.9,18.9,19.5,22.9,32.1C112.9,526.2,96.3,515.3,92.8,506.1z"/>
					<path id="path2892" class="st3" d="M133.8,515.9c8.3,14,1.4,30.1,8.3,40.1C132.4,546,137.5,527.3,133.8,515.9z"/>
					<path id="path2894" class="st3" d="M113.8,554.3c10,18.6,30.7,16.9,39,30.4C144.4,567.7,118.9,564.9,113.8,554.3z"/>
					<path id="path2896" class="st3" d="M150.1,552c17.8,12.3,12.3,25.2,25.8,39C159,577.2,160.5,562,150.1,552z"/>
					<path id="path2898" class="st3" d="M158.5,601.9c17.2-0.6,41.8,21.8,56.7,20.1C200.3,625.1,172.8,605,158.5,601.9z"/>
					<path id="path2900" class="st3" d="M186.3,581.8c1.1,17.5,45.9,28.7,50.7,40.4C231.5,606.7,192.3,595.3,186.3,581.8z"/>
					<path id="path2902" class="st3" d="M251.3,284c3.4-15.5,20.6-18.3,22.9-27.5C273.4,266.3,253,277.2,251.3,284z"/>
					<path id="path2904" class="st3" d="M302,245.6c-2.6,11.7-21.2,18.3-23.8,27.2C279.1,260.8,298.3,254,302,245.6z"/>
					<path id="path2906" class="st3" d="M287.4,273.4c8.9-14.3,27.2-10.6,33.5-18.9C316.4,264.3,293.7,264.6,287.4,273.4z"/>
				</g>
				<path id="path12826" class="st9" d="M466.8,443.7c0,76.8-68.5,139.1-153,139.1s-153-62.3-153-139.1s68.5-139.1,153-139.1
					S466.8,366.9,466.8,443.7z"/>
				<g id="g12874" transform="matrix(1.089 .29066 -.31969 .99014 322.08 9.1715)">
					<path id="path12861" class="st10" d="M124.2,543v1.7c0,1.1-0.9,2-2,2.3c-2.9,0-6.6,0.3-10,0.3l0-10.9c3.7,0,7.5-0.3,10-0.6
						c1.1,0,2,0.9,2,2v1.4 M100.1,539.5v-1.7c0-1.1,0.9-2,2-2c2.9,0.3,6.3,0.6,10,0.6l0,10.9c-3.4,0-6.9,0-10-0.3
						c-1.1-0.3-2-2.3-2-3.4"/>
					<path id="path12865" class="st3" d="M122.2,542.6v1.2c0,0.8-0.7,1.4-1.7,1.6c-2.4,0-5.5,0.2-8.3,0.2l0-7.8
						c3.1,0,6.2-0.2,8.3-0.4c1,0,1.7,0.6,1.7,1.4v1 M102.1,540.2v-1.2c0-0.8,0.7-1.4,1.7-1.4c2.4,0.2,5.2,0.4,8.3,0.4l0,7.8
						c-2.9,0-5.7,0-8.3-0.2c-1-0.2-1.7-1.6-1.7-2.5"/>
				</g>
				<g id="g12878" transform="matrix(.95488 .55779 -.61350 .86818 618.66 131.41)">
					<path id="path12880" class="st10" d="M-49.8,536.5v1.7c0,1.1-0.9,2-2,2.3c-2.9,0-6.6,0.3-10,0.3l0-10.9c3.7,0,7.5-0.3,10-0.6
						c1.1,0,2,0.9,2,2v1.4 M-73.9,533.1v-1.7c0-1.1,0.9-2,2-2c2.9,0.3,6.3,0.6,10,0.6l0,10.9c-3.4,0-6.9,0-10-0.3
						c-1.1-0.3-2-2.3-2-3.4"/>
					<path id="path12882" class="st3" d="M-51.9,536.2v1.2c0,0.8-0.7,1.4-1.7,1.6c-2.4,0-5.5,0.2-8.3,0.2l0-7.8
						c3.1,0,6.2-0.2,8.3-0.4c1,0,1.7,0.6,1.7,1.4v1 M-71.9,533.7v-1.2c0-0.8,0.7-1.4,1.7-1.4c2.4,0.2,5.2,0.4,8.3,0.4l0,7.8
						c-2.9,0-5.7,0-8.3-0.2c-1-0.2-1.7-1.6-1.7-2.5"/>
				</g>
				<g id="g12884" transform="matrix(.74342 .77974 -.85762 .67591 865.37 324.65)">
					<path id="path12886" class="st10" d="M-218.6,579.4v1.7c0,1.1-0.9,2-2,2.3c-2.9,0-6.6,0.3-10,0.3l0-10.9c3.7,0,7.5-0.3,10-0.6
						c1.1,0,2,0.9,2,2v1.4 M-242.7,575.9v-1.7c0-1.1,0.9-2,2-2c2.9,0.3,6.3,0.6,10,0.6l0,10.9c-3.4,0-6.9,0-10-0.3
						c-1.1-0.3-2-2.3-2-3.4"/>
					<path id="path12888" class="st3" d="M-220.7,579v1.2c0,0.8-0.7,1.4-1.7,1.6c-2.4,0-5.5,0.2-8.3,0.2l0-7.8
						c3.1,0,6.2-0.2,8.3-0.4c1,0,1.7,0.6,1.7,1.4v1 M-240.7,576.6v-1.2c0-0.8,0.7-1.4,1.7-1.4c2.4,0.2,5.2,0.4,8.3,0.4l0,7.8
						c-2.9,0-5.7,0-8.3-0.2c-1-0.2-1.7-1.6-1.7-2.5"/>
				</g>
				<g id="g12890" transform="matrix(.47175 .93856 -1.0323 .42891 1042.2 573.25)">
					<path id="path12892" class="st10" d="M-368.6,668v1.7c0,1.1-0.9,2-2,2.3c-2.9,0-6.6,0.3-10,0.3l0-10.9c3.7,0,7.5-0.3,10-0.6
						c1.1,0,2,0.9,2,2v1.4 M-392.6,664.6v-1.7c0-1.1,0.9-2,2-2c2.9,0.3,6.3,0.6,10,0.6l0,10.9c-3.4,0-6.9,0-10-0.3
						c-1.1-0.3-2-2.3-2-3.4"/>
					<path id="path12894" class="st3" d="M-370.6,667.7v1.2c0,0.8-0.7,1.4-1.7,1.6c-2.4,0-5.5,0.2-8.3,0.2l0-7.8
						c3.1,0,6.2-0.2,8.3-0.4c1,0,1.7,0.6,1.7,1.4v1 M-390.6,665.2V664c0-0.8,0.7-1.4,1.7-1.4c2.4,0.2,5.2,0.4,8.3,0.4l0,7.8
						c-2.9,0-5.7,0-8.3-0.2c-1-0.2-1.7-1.6-1.7-2.5"/>
				</g>
				<g id="g12896" transform="matrix(.16188 1.0214 -1.1234 .14718 1134.9 857.07)">
					<path id="path12898" class="st10" d="M-487.4,795.3v1.7c0,1.1-0.9,2-2,2.3c-2.9,0-6.6,0.3-10,0.3l0-10.9c3.7,0,7.5-0.3,10-0.6
						c1.1,0,2,0.9,2,2v1.4 M-511.5,791.9v-1.7c0-1.1,0.9-2,2-2c2.9,0.3,6.3,0.6,10,0.6l0,10.9c-3.4,0-6.9,0-10-0.3
						c-1.1-0.3-2-2.3-2-3.4"/>
					<path id="path12900" class="st3" d="M-489.5,795v1.2c0,0.8-0.7,1.4-1.7,1.6c-2.4,0-5.5,0.2-8.3,0.2l0-7.8
						c3.1,0,6.2-0.2,8.3-0.4c1,0,1.7,0.6,1.7,1.4v1 M-509.5,792.5v-1.2c0-0.8,0.7-1.4,1.7-1.4c2.4,0.2,5.2,0.4,8.3,0.4l0,7.8
						c-2.9,0-5.7,0-8.3-0.2c-1-0.2-1.7-1.6-1.7-2.5"/>
				</g>
				<g id="g12902" transform="matrix(-.16110 1.0215 -1.1235 -.14647 1135.9 1153.1)">
					<path id="path12904" class="st10" d="M-565.6,950.9v1.7c0,1.1-0.9,2-2,2.3c-2.9,0-6.6,0.3-10,0.3l0-10.9c3.7,0,7.5-0.3,10-0.6
						c1.1,0,2,0.9,2,2v1.4 M-589.7,947.5v-1.7c0-1.1,0.9-2,2-2c2.9,0.3,6.3,0.6,10,0.6l0,10.9c-3.4,0-6.9,0-10-0.3
						c-1.1-0.3-2-2.3-2-3.4"/>
					<path id="path12906" class="st3" d="M-567.7,950.6v1.2c0,0.8-0.7,1.4-1.7,1.6c-2.4,0-5.5,0.2-8.3,0.2l0-7.8
						c3.1,0,6.2-0.2,8.3-0.4c1,0,1.7,0.6,1.7,1.4v1 M-587.7,948.1v-1.2c0-0.8,0.7-1.4,1.7-1.4c2.4,0.2,5.2,0.4,8.3,0.4l0,7.8
						c-2.9,0-5.7,0-8.3-0.2c-1-0.2-1.7-1.6-1.7-2.5"/>
				</g>
				<g id="g12908" transform="matrix(-.47103 .93886 -1.0326 -.42826 1045.1 1437.5)">
					<path id="path12910" class="st10" d="M-596.9,1122.3v1.7c0,1.1-0.9,2-2,2.3c-2.9,0-6.6,0.3-10,0.3l0-10.9c3.7,0,7.5-0.3,10-0.6
						c1.1,0,2,0.9,2,2v1.4 M-621,1118.9v-1.7c0-1.1,0.9-2,2-2c2.9,0.3,6.3,0.6,10,0.6l0,10.9c-3.4,0-6.9,0-10-0.3
						c-1.1-0.3-2-2.3-2-3.4"/>
					<path id="path12912" class="st3" d="M-598.9,1122v1.2c0,0.8-0.7,1.4-1.7,1.6c-2.4,0-5.5,0.2-8.3,0.2l0-7.8
						c3.1,0,6.2-0.2,8.3-0.4c1,0,1.7,0.6,1.7,1.4v1 M-619,1119.5v-1.2c0-0.8,0.7-1.4,1.7-1.4c2.4,0.2,5.2,0.4,8.3,0.4l0,7.8
						c-2.9,0-5.7,0-8.3-0.2c-1-0.2-1.7-1.6-1.7-2.5"/>
				</g>
				<g id="g12914" transform="matrix(-.74282 .78021 -.85814 -.67537 869.95 1687)">
					<path id="path12916" class="st10" d="M-578.5,1295.5v1.7c0,1.1-0.9,2-2,2.3c-2.9,0-6.6,0.3-10,0.3l0-10.9c3.7,0,7.5-0.3,10-0.6
						c1.1,0,2,0.9,2,2v1.4 M-602.6,1292v-1.7c0-1.1,0.9-2,2-2c2.9,0.3,6.3,0.6,10,0.6l0,10.9c-3.4,0-6.9,0-10-0.3
						c-1.1-0.3-2-2.3-2-3.4"/>
					<path id="path12918" class="st3" d="M-580.6,1295.1v1.2c0,0.8-0.7,1.4-1.7,1.6c-2.4,0-5.5,0.2-8.3,0.2l0-7.8
						c3.1,0,6.2-0.2,8.3-0.4c1,0,1.7,0.6,1.7,1.4v1 M-600.6,1292.7v-1.2c0-0.8,0.7-1.4,1.7-1.4c2.4,0.2,5.2,0.4,8.3,0.4l0,7.8
						c-2.9,0-5.7,0-8.3-0.2c-1-0.2-1.7-1.6-1.7-2.5"/>
				</g>
				<g id="g12920" transform="matrix(-.95446 .55839 -.61416 -.86779 624.54 1881.6)">
					<path id="path12922" class="st10" d="M-512.1,1456.5v1.7c0,1.1-0.9,2-2,2.3c-2.9,0-6.6,0.3-10,0.3l0-10.9c3.7,0,7.5-0.3,10-0.6
						c1.1,0,2,0.9,2,2v1.4 M-536.2,1453.1v-1.7c0-1.1,0.9-2,2-2c2.9,0.3,6.3,0.6,10,0.6l0,10.9c-3.4,0-6.9,0-10-0.3
						c-1.1-0.3-2-2.3-2-3.4"/>
					<path id="path12924" class="st3" d="M-514.2,1456.2v1.2c0,0.8-0.7,1.4-1.7,1.6c-2.4,0-5.5,0.2-8.3,0.2l0-7.8
						c3.1,0,6.2-0.2,8.3-0.4c1,0,1.7,0.6,1.7,1.4v1 M-534.2,1453.7v-1.2c0-0.8,0.7-1.4,1.7-1.4c2.4,0.2,5.2,0.4,8.3,0.4l0,7.8
						c-2.9,0-5.7,0-8.3-0.2c-1-0.2-1.7-1.6-1.7-2.5"/>
				</g>
				<g id="g12926" transform="matrix(-1.0888 .29135 -.32045 -.98993 328.78 2005.5)">
					<path id="path12928" class="st10" d="M-403.1,1592.3v1.7c0,1.1-0.9,2-2,2.3c-2.9,0-6.6,0.3-10,0.3l0-10.9c3.7,0,7.5-0.3,10-0.6
						c1.1,0,2,0.9,2,2v1.4 M-427.2,1588.9v-1.7c0-1.1,0.9-2,2-2c2.9,0.3,6.3,0.6,10,0.6l0,10.9c-3.4,0-6.9,0-10-0.3
						c-1.1-0.3-2-2.3-2-3.4"/>
					<path id="path12930" class="st3" d="M-405.2,1592v1.2c0,0.8-0.7,1.4-1.7,1.6c-2.4,0-5.5,0.2-8.3,0.2l0-7.8
						c3.1,0,6.2-0.2,8.3-0.4c1,0,1.7,0.6,1.7,1.4v1 M-425.2,1589.5v-1.2c0-0.8,0.7-1.4,1.7-1.4c2.4,0.2,5.2,0.4,8.3,0.4l0,7.8
						c-2.9,0-5.7,0-8.3-0.2c-1-0.2-1.7-1.6-1.7-2.5"/>
				</g>
				<g id="g12932" transform="matrix(-1.135 .00072019 -.00079212 -1.0319 6.6183 2048.7)">
					<path id="path12934" class="st10" d="M-260.3,1692v1.7c0,1.1-0.9,2-2,2.3c-2.9,0-6.6,0.3-10,0.3l0-10.9c3.7,0,7.5-0.3,10-0.6
						c1.1,0,2,0.9,2,2v1.4 M-284.3,1688.6v-1.7c0-1.1,0.9-2,2-2c2.9,0.3,6.3,0.6,10,0.6l0,10.9c-3.4,0-6.9,0-10-0.3
						c-1.1-0.3-2-2.3-2-3.4"/>
					<path id="path12936" class="st3" d="M-262.3,1691.7v1.2c0,0.8-0.7,1.4-1.7,1.6c-2.4,0-5.5,0.2-8.3,0.2l0-7.8
						c3.1,0,6.2-0.2,8.3-0.4c1,0,1.7,0.6,1.7,1.4v1 M-282.3,1689.2v-1.2c0-0.8,0.7-1.4,1.7-1.4c2.4,0.2,5.2,0.4,8.3,0.4l0,7.8
						c-2.9,0-5.7,0-8.3-0.2c-1-0.2-1.7-1.6-1.7-2.5"/>
				</g>
				<g id="g12938" transform="matrix(-1.0918 -.28208 .31025 -.99262 -313.06 2009.9)">
					<path id="path12940" class="st10" d="M-103.5,1747.5v1.7c0,1.1-0.9,2-2,2.3c-2.9,0-6.6,0.3-10,0.3l0-10.9c3.7,0,7.5-0.3,10-0.6
						c1.1,0,2,0.9,2,2v1.4 M-127.6,1744v-1.7c0-1.1,0.9-2,2-2c2.9,0.3,6.3,0.6,10,0.6l0,10.9c-3.4,0-6.9,0-10-0.3
						c-1.1-0.3-2-2.3-2-3.4"/>
					<path id="path12942" class="st3" d="M-105.5,1747.1v1.2c0,0.8-0.7,1.4-1.7,1.6c-2.4,0-5.5,0.2-8.3,0.2l0-7.8
						c3.1,0,6.2-0.2,8.3-0.4c1,0,1.7,0.6,1.7,1.4v1 M-125.6,1744.7v-1.2c0-0.8,0.7-1.4,1.7-1.4c2.4,0.2,5.2,0.4,8.3,0.4l0,7.8
						c-2.9,0-5.7,0-8.3-0.2c-1-0.2-1.7-1.6-1.7-2.5"/>
				</g>
				<g id="g12944" transform="matrix(-.96016 -.55025 .60521 -.87297 -610.8 1890)">
					<path id="path12946" class="st10" d="M71,1756.4v1.7c0,1.1-0.9,2-2,2.3c-2.9,0-6.6,0.3-10,0.3l0-10.9c3.7,0,7.5-0.3,10-0.6
						c1.1,0,2,0.9,2,2v1.4 M46.9,1753v-1.7c0-1.1,0.9-2,2-2c2.9,0.3,6.3,0.6,10,0.6l0,10.9c-3.4,0-6.9,0-10-0.3
						c-1.1-0.3-2-2.3-2-3.4"/>
					<path id="path12948" class="st3" d="M68.9,1756.1v1.2c0,0.8-0.7,1.4-1.7,1.6c-2.4,0-5.5,0.2-8.3,0.2l0-7.8
						c3.1,0,6.2-0.2,8.3-0.4c1,0,1.7,0.6,1.7,1.4v1 M48.9,1753.6v-1.2c0-0.8,0.7-1.4,1.7-1.4c2.4,0.2,5.2,0.4,8.3,0.4l0,7.8
						c-2.9,0-5.7,0-8.3-0.2c-1-0.2-1.7-1.6-1.7-2.5"/>
				</g>
				<g id="g12950" transform="matrix(-.75081 -.77386 .85115 -.68264 -859.34 1698.7)">
					<path id="path12952" class="st10" d="M240.8,1715.8v1.7c0,1.1-0.9,2-2,2.3c-2.9,0-6.6,0.3-10,0.3l0-10.9c3.7,0,7.5-0.3,10-0.6
						c1.1,0,2,0.9,2,2v1.4 M216.8,1712.4v-1.7c0-1.1,0.9-2,2-2c2.9,0.3,6.3,0.6,10,0.6l0,10.9c-3.4,0-6.9,0-10-0.3
						c-1.1-0.3-2-2.3-2-3.4"/>
					<path id="path12954" class="st3" d="M238.8,1715.5v1.2c0,0.8-0.7,1.4-1.7,1.6c-2.4,0-5.5,0.2-8.3,0.2l0-7.8
						c3.1,0,6.2-0.2,8.3-0.4c1,0,1.7,0.6,1.7,1.4v1 M218.7,1713v-1.2c0-0.8,0.7-1.4,1.7-1.4c2.4,0.2,5.2,0.4,8.3,0.4l0,7.8
						c-2.9,0-5.7,0-8.3-0.2c-1-0.2-1.7-1.6-1.7-2.5"/>
				</g>
				<g id="g12956" transform="matrix(-.48067 -.93481 1.0282 -.43702 -1038.6 1451.5)">
					<path id="path12958" class="st10" d="M392.4,1629v1.7c0,1.1-0.9,2-2,2.3c-2.9,0-6.6,0.3-10,0.3l0-10.9c3.7,0,7.5-0.3,10-0.6
						c1.1,0,2,0.9,2,2v1.4 M368.3,1625.6v-1.7c0-1.1,0.9-2,2-2c2.9,0.3,6.3,0.6,10,0.6l0,10.9c-3.4,0-6.9,0-10-0.3
						c-1.1-0.3-2-2.3-2-3.4"/>
					<path id="path12960" class="st3" d="M390.4,1628.7v1.2c0,0.8-0.7,1.4-1.7,1.6c-2.4,0-5.5,0.2-8.3,0.2l0-7.8
						c3.1,0,6.2-0.2,8.3-0.4c1,0,1.7,0.6,1.7,1.4v1 M370.3,1626.2v-1.2c0-0.8,0.7-1.4,1.7-1.4c2.4,0.2,5.2,0.4,8.3,0.4l0,7.8
						c-2.9,0-5.7,0-8.3-0.2c-1-0.2-1.7-1.6-1.7-2.5"/>
				</g>
				<g id="g12962" transform="matrix(-.17160 -1.0201 1.1219 -.15602 -1133.9 1168.4)">
					<path id="path12964" class="st10" d="M513.4,1503.1v1.7c0,1.1-0.9,2-2,2.3c-2.9,0-6.6,0.3-10,0.3l0-10.9c3.7,0,7.5-0.3,10-0.6
						c1.1,0,2,0.9,2,2v1.4 M489.3,1499.6v-1.7c0-1.1,0.9-2,2-2c2.9,0.3,6.3,0.6,10,0.6l0,10.9c-3.4,0-6.9,0-10-0.3
						c-1.1-0.3-2-2.3-2-3.4"/>
					<path id="path12966" class="st3" d="M511.3,1502.7v1.2c0,0.8-0.7,1.4-1.7,1.6c-2.4,0-5.5,0.2-8.3,0.2l0-7.8
						c3.1,0,6.2-0.2,8.3-0.4c1,0,1.7,0.6,1.7,1.4v1 M491.3,1500.3v-1.2c0-0.8,0.7-1.4,1.7-1.4c2.4,0.2,5.2,0.4,8.3,0.4l0,7.8
						c-2.9,0-5.7,0-8.3-0.2c-1-0.2-1.7-1.6-1.7-2.5"/>
				</g>
				<g id="g12968" transform="matrix(.15136 -1.0227 1.1248 .13762 -1137.7 872.37)">
					<path id="path12970" class="st10" d="M594,1348.1v1.7c0,1.1-0.9,2-2,2.3c-2.9,0-6.6,0.3-10,0.3l0-10.9c3.7,0,7.5-0.3,10-0.6
						c1.1,0,2,0.9,2,2v1.4 M570,1344.7v-1.7c0-1.1,0.9-2,2-2c2.9,0.3,6.3,0.6,10,0.6l0,10.9c-3.4,0-6.9,0-10-0.3
						c-1.1-0.3-2-2.3-2-3.4"/>
					<path id="path12972" class="st3" d="M592,1347.8v1.2c0,0.8-0.7,1.4-1.7,1.6c-2.4,0-5.5,0.2-8.3,0.2l0-7.8
						c3.1,0,6.2-0.2,8.3-0.4c1,0,1.7,0.6,1.7,1.4v1 M571.9,1345.3v-1.2c0-0.8,0.7-1.4,1.7-1.4c2.4,0.2,5.2,0.4,8.3,0.4l0,7.8
						c-2.9,0-5.7,0-8.3-0.2c-1-0.2-1.7-1.6-1.7-2.5"/>
				</g>
				<g id="g12974" transform="matrix(.46207 -.94253 1.0367 .42011 -1049.7 587.33)">
					<path id="path12976" class="st10" d="M627.7,1176.7v1.7c0,1.1-0.9,2-2,2.3c-2.9,0-6.6,0.3-10,0.3l0-10.9c3.7,0,7.5-0.3,10-0.6
						c1.1,0,2,0.9,2,2v1.4 M603.7,1173.3v-1.7c0-1.1,0.9-2,2-2c2.9,0.3,6.3,0.6,10,0.6l0,10.9c-3.4,0-6.9,0-10-0.3
						c-1.1-0.3-2-2.3-2-3.4"/>
					<path id="path12978" class="st3" d="M625.7,1176.4v1.2c0,0.8-0.7,1.4-1.7,1.6c-2.4,0-5.5,0.2-8.3,0.2l0-7.8
						c3.1,0,6.2-0.2,8.3-0.4c1,0,1.7,0.6,1.7,1.4v1 M605.6,1173.9v-1.2c0-0.8,0.7-1.4,1.7-1.4c2.4,0.2,5.2,0.4,8.3,0.4l0,7.8
						c-2.9,0-5.7,0-8.3-0.2c-1-0.2-1.7-1.6-1.7-2.5"/>
				</g>
				<g id="g12980" transform="matrix(.73536 -.78603 .86454 .66859 -876.89 336.39)">
					<path id="path12982" class="st10" d="M611.8,1002.8v1.7c0,1.1-0.9,2-2,2.3c-2.9,0-6.6,0.3-10,0.3l0-10.9c3.7,0,7.5-0.3,10-0.6
						c1.1,0,2,0.9,2,2v1.4 M587.7,999.4v-1.7c0-1.1,0.9-2,2-2c2.9,0.3,6.3,0.6,10,0.6l0,10.9c-3.4,0-6.9,0-10-0.3
						c-1.1-0.3-2-2.3-2-3.4"/>
					<path id="path12984" class="st3" d="M609.8,1002.5v1.2c0,0.8-0.7,1.4-1.7,1.6c-2.4,0-5.5,0.2-8.3,0.2l0-7.8
						c3.1,0,6.2-0.2,8.3-0.4c1,0,1.7,0.6,1.7,1.4v1 M589.7,1000v-1.2c0-0.8,0.7-1.4,1.7-1.4c2.4,0.2,5.2,0.4,8.3,0.4l0,7.8
						c-2.9,0-5.7,0-8.3-0.2c-1-0.2-1.7-1.6-1.7-2.5"/>
				</g>
				<g id="g12986" transform="matrix(.94910 -.56588 .62240 .86292 -633.34 139.86)">
					<path id="path12988" class="st10" d="M547.5,840.4v1.7c0,1.1-0.9,2-2,2.3c-2.9,0-6.6,0.3-10,0.3l0-10.9c3.7,0,7.5-0.3,10-0.6
						c1.1,0,2,0.9,2,2v1.4 M523.5,836.9v-1.7c0-1.1,0.9-2,2-2c2.9,0.3,6.3,0.6,10,0.6l0,10.9c-3.4,0-6.9,0-10-0.3
						c-1.1-0.3-2-2.3-2-3.4"/>
					<path id="path12990" class="st3" d="M545.5,840v1.2c0,0.8-0.7,1.4-1.7,1.6c-2.4,0-5.5,0.2-8.3,0.2l0-7.8c3.1,0,6.2-0.2,8.3-0.4
						c1,0,1.7,0.6,1.7,1.4v1 M525.5,837.6v-1.2c0-0.8,0.7-1.4,1.7-1.4c2.4,0.2,5.2,0.4,8.3,0.4l0,7.8c-2.9,0-5.7,0-8.3-0.2
						c-1-0.2-1.7-1.6-1.7-2.5"/>
				</g>
				<g id="g12992" transform="matrix(1.086 -.29991 .32987 .98737 -338.77 13.655)">
					<path id="path12994" class="st10" d="M440.1,702.7v1.7c0,1.1-0.9,2-2,2.3c-2.9,0-6.6,0.3-10,0.3l0-10.9c3.7,0,7.5-0.3,10-0.6
						c1.1,0,2,0.9,2,2v1.4 M416,699.2v-1.7c0-1.1,0.9-2,2-2c2.9,0.3,6.3,0.6,10,0.6l0,10.9c-3.4,0-6.9,0-10-0.3
						c-1.1-0.3-2-2.3-2-3.4"/>
					<path id="path12996" class="st3" d="M438.1,702.3v1.2c0,0.8-0.7,1.4-1.7,1.6c-2.4,0-5.5,0.2-8.3,0.2l0-7.8
						c3.1,0,6.2-0.2,8.3-0.4c1,0,1.7,0.6,1.7,1.4v1 M418,699.9v-1.2c0-0.8,0.7-1.4,1.7-1.4c2.4,0.2,5.2,0.4,8.3,0.4l0,7.8
						c-2.9,0-5.7,0-8.3-0.2c-1-0.2-1.7-1.6-1.7-2.5"/>
				</g>
				<g id="g12998" transform="matrix(1.1349 -.0096543 .010618 1.0319 -17.033 -32.001)">
					<path id="path13000" class="st10" d="M298.3,600.8v1.7c0,1.1-0.9,2-2,2.3c-2.9,0-6.6,0.3-10,0.3l0-10.9c3.7,0,7.5-0.3,10-0.6
						c1.1,0,2,0.9,2,2v1.4 M274.2,597.3v-1.7c0-1.1,0.9-2,2-2c2.9,0.3,6.3,0.6,10,0.6l0,10.9c-3.4,0-6.9,0-10-0.3
						c-1.1-0.3-2-2.3-2-3.4"/>
					<path id="path13002" class="st3" d="M296.2,600.4v1.2c0,0.8-0.7,1.4-1.7,1.6c-2.4,0-5.5,0.2-8.3,0.2l0-7.8
						c3.1,0,6.2-0.2,8.3-0.4c1,0,1.7,0.6,1.7,1.4v1 M276.2,598v-1.2c0-0.8,0.7-1.4,1.7-1.4c2.4,0.2,5.2,0.4,8.3,0.4l0,7.8
						c-2.9,0-5.7,0-8.3-0.2c-1-0.2-1.7-1.6-1.7-2.5"/>
				</g>
			</g>
		</g>
	</g>
</g>
</svg>
