<?xml version="1.0" encoding="utf-8"?>
<!-- Generator: Adobe Illustrator 21.0.0, SVG Export Plug-In . SVG Version: 6.00 Build 0)  -->
<svg version="1.1" id="Capa_1" xmlns="http://www.w3.org/2000/svg" xmlns:xlink="http://www.w3.org/1999/xlink" x="0px" y="0px"
	 viewBox="0 0 404.1 438.5" style="fill:#e63b99; enable-background:new 0 0 404.1 438.5;" xml:space="preserve">
<g>
	<path d="M143.6,438.5c0-0.8-0.1-7.7-0.2-20.7c-0.1-13-0.2-24.4-0.2-34.1l-8.8,1.5c-5.6,1-12.7,1.5-21.3,1.3
		c-8.6-0.1-17.4-1-26.6-2.7c-9.2-1.7-17.7-5.5-25.7-11.5c-7.9-6-13.5-13.9-16.9-23.6l-3.8-8.8c-2.6-5.9-6.6-12.4-12.1-19.5
		c-5.5-7.2-11-12-16.7-14.6l-2.7-1.9c-1.8-1.3-3.4-2.8-5-4.6c-1.5-1.8-2.7-3.6-3.4-5.4c-0.8-1.8-0.1-3.3,1.9-4.4S8,288,13.3,288
		l7.7,1.1c5.1,1,11.4,4.1,19,9.2c7.5,5.1,13.7,11.7,18.6,19.9c5.9,10.5,13,18.5,21.3,23.9c8.3,5.5,16.7,8.2,25.1,8.2
		s15.7-0.6,21.8-1.9c6.1-1.3,11.9-3.2,17.2-5.7c2.3-17.1,8.6-30.3,18.8-39.5c-14.6-1.5-27.6-3.8-39.3-6.9c-11.6-3.1-23.6-8-36-14.9
		c-12.4-6.9-22.7-15.5-30.8-25.7c-8.2-10.2-14.9-23.6-20.1-40.2c-5.2-16.6-7.9-35.8-7.9-57.5c0-30.9,10.1-57.2,30.3-78.9
		C49.5,56,50.4,29.9,61.6,1.1C69-1.2,80,0.5,94.5,6.2c14.6,5.7,25.2,10.7,32,14.8c6.8,4.1,12.2,7.5,16.3,10.3
		c23.8-6.6,48.3-10,73.6-10s49.8,3.3,73.6,10l14.6-9.2c10-6.1,21.7-11.8,35.2-16.9c13.5-5.1,23.9-6.5,31-4.2
		c11.5,28.9,12.5,54.9,3.1,78.1c20.2,21.7,30.3,48,30.3,78.9c0,21.7-2.6,40.9-7.9,57.6c-5.2,16.7-12,30.1-20.3,40.2
		c-8.3,10.1-18.7,18.6-31,25.5c-12.4,6.9-24.4,11.9-36,14.9c-11.6,3.1-24.7,5.4-39.3,6.9c13.3,11.5,19.9,29.6,19.9,54.4v80.8
		L143.6,438.5z"/>
</g>
</svg>
