<svg xmlns="http://www.w3.org/2000/svg" viewBox="0 0 60.46 49.58"><defs><style>.cls-1{fill:#fff;}</style></defs><title>logo-telegram</title><g id="Calque_2" data-name="Calque 2"><g id="OBJECTS"><path class="cls-1" d="M58.63,0A1.84,1.84,0,0,0,58,.12L1.18,21.7a1.83,1.83,0,0,0,.06,3.44L14.41,29.6l7.94,15.89h0l0,0h0a.86.86,0,0,0,.76.48.84.84,0,0,0,.55-.2l7.44-6.31-8.31-6.3.65,8.28-6-12.36L49.25,10.06,22.83,33.21,43.39,48.82a3.7,3.7,0,0,0,2.25.76,3.74,3.74,0,0,0,3.64-2.84L60.4,2.28A1.83,1.83,0,0,0,58.63,0Z"/></g></g></svg>